<?xml version="1.0" encoding="UTF-8"?>
<svg xmlns="http://www.w3.org/2000/svg" width="1200" height="300" viewBox="0 0 1200 300" role="img" aria-labelledby="title desc">
  <title id="title">Meet your help desk agent. Give it a place to run.</title>
  <desc id="desc">Prepare the two Foundry versions used throughout the workshop. The robot welcomes two numbered, connected agent hosts under a cloud.</desc>
  <metadata>{"generator":"generate_banners.py","source":"host-setup.excalidraw","scene_sha256":"3a155e932ec6a40786c3267ee4d897234a88a06f9499ecfe94aac84a8eb095df"}</metadata>
  <defs>
    <path id="glyph-bold-0031" d="M822 -1 425 0Q236 0 236 119Q236 253 447 253Q467 253 491 252V1139Q404 1079 378 1079Q322 1079 280.5 1119.0Q239 1159 239 1212Q239 1267 306 1325L419 1407L541 1505Q616 1559 686 1559Q776 1559 776 1451Q776 1332 766.0 1116.0Q756 900 756 499V257H822Q880 257 919.5 220.0Q959 183 959 128Q959 73 919.5 36.0Q880 -1 822 -1Z" />
    <path id="glyph-bold-0032" d="M1008 -2Q983 -2 930.5 6.5Q878 15 855 15L561 16Q523 16 446.0 6.5Q369 -3 330 -3Q319 -3 298.0 1.0Q277 5 266 5Q176 5 144 78Q124 124 124 220Q124 407 207 533Q271 630 414 727Q549 816 683 904Q841 1019 841 1165Q841 1203 778.0 1240.5Q715 1278 655 1278Q549 1278 430.5 1183.5Q312 1089 268 1089Q215 1089 175 1115Q125 1147 125 1204Q125 1265 175 1309Q296 1416 386 1465Q516 1536 655 1536Q828 1536 967 1445Q1126 1341 1126 1173Q1126 1003 1048 884Q987 789 855 699Q730 620 605 542Q415 418 401 259Q456 266 563 275Q776 286 868 286Q954 286 1038 249Q1142 203 1142 131Q1142 79 1105 40Q1066 -2 1008 -2Z" />
    <path id="glyph-bold-004d" d="M529 790Q484 628 403 301Q384 188 366 76Q325 -66 215 -66Q146 -66 106 -19Q72 21 72 76Q72 238 141 471Q244 820 252 858Q281 1012 311 1166Q356 1378 408.5 1448.5Q461 1519 541 1519Q632 1519 675 1427Q715 1340 761 1071Q805 810 892 509Q1006 806 1104 1161L1160 1391Q1214 1534 1327 1534Q1436 1534 1489 1368Q1511 1301 1536 1118Q1594 692 1682 388Q1771 79 1771 52Q1771 -7 1724 -47Q1680 -83 1625 -83Q1516 -83 1463 73L1407 315Q1359 495 1303 832Q1258 698 1154 411L1094 227Q1057 118 1017 48Q964 -45 869 -45Q775 -45 725 66L669 252Q591 508 529 790Z" />
    <path id="glyph-bold-0065" d="M606 -46Q367 -46 215 68Q47 194 47 423Q47 676 180 851Q328 1045 579 1045Q753 1045 868 989Q1019 915 1019 759Q1019 649 896 564Q840 525 671 450L334 301Q382 249 450.0 223.0Q518 197 606 197Q740 197 833 252Q916 301 966 301Q1070 301 1070 200Q1070 86 903 14Q763 -46 606 -46ZM579 803Q486 803 420.0 741.0Q354 679 314 555Q427 604 539 652Q674 713 754 765Q687 803 579 803Z" />
    <path id="glyph-bold-0074" d="M808 805Q787 805 758.5 806.5Q730 808 709 808Q668 808 614 800Q632 396 632 272Q632 259 633.0 223.5Q634 188 634 166Q634 -64 489 -64Q434 -64 394 -30Q350 6 350 60Q350 96 353.0 168.0Q356 240 356 276Q356 397 338 794Q276 797 150.5 810.5Q25 824 25 940Q25 996 63.0 1035.0Q101 1074 161 1074Q198 1074 331 1062Q330 1094 326 1168Q322 1232 322 1267Q322 1323 363.0 1360.0Q404 1397 462 1397Q610 1397 610 1148L608 1066Q670 1075 709 1075Q824 1075 866 1060Q946 1032 946 938Q946 881 907.0 843.0Q868 805 808 805Z" />
    <path id="glyph-bold-0079" d="M1096 845Q987 618 751 132Q623 -129 556 -301Q535 -363 490 -485Q454 -579 362 -579Q305 -579 262.0 -542.0Q219 -505 219 -449Q219 -356 431 102Q321 319 82 741Q58 779 33 818Q6 864 6 902Q6 956 49.0 997.0Q92 1038 148 1038Q214 1038 251 989Q393 800 582 420Q689 657 712 706Q783 855 851 968Q894 1040 969 1040Q1025 1040 1069.0 1002.0Q1113 964 1113 909Q1113 880 1096 845Z" />
    <path id="glyph-bold-006f" d="M514 -59Q329 -59 196 68Q50 207 43 439Q36 660 164 833Q316 1037 587 1037Q787 1037 905 877Q1011 733 1011 520Q1011 288 887 124Q748 -59 514 -59ZM574 773Q451 774 380 661Q320 566 320 439Q320 319 388 255Q442 204 514 204Q601 204 665 263Q738 332 743 450Q756 772 574 773Z" />
    <path id="glyph-bold-0075" d="M978 578Q978 511 979.0 376.0Q980 241 980 174Q980 153 983.5 111.5Q987 70 987 49Q987 -7 946.5 -43.5Q906 -80 847 -80Q764 -80 726 -5Q598 -52 461 -52Q319 -52 222 8Q113 77 92 209Q53 459 53 656Q53 786 83 953Q103 1066 218 1066Q276 1066 317.0 1029.5Q358 993 358 937Q358 893 343.5 799.0Q329 705 329 656Q329 515 338.5 409.5Q348 304 367 235Q392 224 415.5 218.0Q439 212 461 212Q572 212 705 244Q705 321 704 419Q702 536 702 587Q702 792 721 941Q736 1060 857 1060Q916 1060 958.0 1023.0Q1000 986 997 930Q978 549 978 578Z" />
    <path id="glyph-bold-0072" d="M940 721Q931 568 801 568Q675 568 675 698L670 799Q445 763 348 568L349 65Q349 8 310.0 -29.5Q271 -67 211 -67Q149 -67 115 -27Q83 9 83 65V720Q83 751 85.0 812.5Q87 874 87 905Q87 961 120.5 998.5Q154 1036 216 1036Q327 1036 348 922Q525 1054 741 1054Q941 1054 941 788Q941 737 940 721Z" />
    <path id="glyph-bold-0068" d="M399 915Q472 987 555.5 1022.5Q639 1058 734 1058Q905 1058 980 962Q1036 890 1048 741Q1053 618 1059 494Q1075 333 1079 298Q1093 187 1113 104Q1118 83 1118 67Q1118 11 1075.5 -25.5Q1033 -62 976 -62Q875 -62 845 38Q821 119 801 266Q783 407 783 498Q783 523 785.5 573.5Q788 624 788 649Q788 723 786 735Q777 790 734 790Q623 790 533 688Q487 637 407 494Q407 132 372 58Q333 -24 248 -24Q192 -24 148.5 13.5Q105 51 105 106Q105 125 116 159Q123 181 128 429Q123 630 130 1098L132 1131Q138 1249 138 1289Q138 1320 128.5 1380.5Q119 1441 119 1472Q119 1529 160.0 1565.5Q201 1602 259 1602Q358 1602 392 1496Q411 1436 411 1312Q411 1212 405 1109Q399 1011 399 915Z" />
    <path id="glyph-bold-006c" d="M410 147Q410 -43 272 -43Q212 -43 173.0 -5.0Q134 33 134 93V1476Q134 1534 176 1571Q216 1605 275 1605Q334 1605 372.0 1569.5Q410 1534 410 1476Z" />
    <path id="glyph-bold-0070" d="M564 -59Q478 -59 383 -39L382 -447Q382 -505 343.0 -543.0Q304 -581 244 -581Q184 -581 145.0 -543.0Q106 -505 106 -447Q106 -400 108 -74Q110 168 108 321Q105 537 94 693Q79 908 79 890Q79 973 116 1032Q159 1099 232 1099Q288 1099 326.0 1061.0Q364 1023 364 970L363 960Q430 998 497.5 1016.5Q565 1035 633 1035Q863 1035 969 840Q1048 693 1048 459Q1048 240 923 96Q789 -59 564 -59ZM633 768Q570 768 505.0 738.5Q440 709 374 650Q386 444 386 237Q475 208 564 208Q667 208 722 281Q772 347 772 459Q772 594 760 646Q731 768 633 768Z" />
    <path id="glyph-bold-0064" d="M834 1005Q847 1346 865 1476Q882 1594 995 1594Q1054 1594 1090.0 1556.0Q1126 1518 1126 1463Q1126 1318 1103.5 1031.0Q1081 744 1081 599Q1081 245 1104 125Q1107 109 1107 96Q1107 41 1067.0 5.5Q1027 -30 974 -30Q900 -30 864 36Q796 -5 723.0 -25.5Q650 -46 572 -46Q348 -46 200 97Q49 243 49 469Q49 738 201.0 903.5Q353 1069 598 1069Q673 1069 732.0 1053.0Q791 1037 834 1005ZM814 690Q781 753 728.0 784.0Q675 815 602 815Q454 815 380.0 729.5Q306 644 306 473Q306 365 386.0 288.0Q466 211 572 211Q649 211 689 229Q716 241 781 293Q798 307 814 324Q812 372 814 690Z" />
    <path id="glyph-bold-0073" d="M806 732Q707 732 687 815Q647 822 605 822Q364 822 364 756Q364 717 509 651Q707 560 777 509Q922 404 922 272Q922 100 762 11Q633 -60 445 -60Q312 -60 202 -19Q52 37 52 146Q52 246 171 246Q217 246 304.0 217.0Q391 188 438 188Q641 188 642 270Q642 321 501 383Q295 474 237 514Q96 613 96 755Q96 956 309 1026Q434 1067 689 1067Q789 1067 837 1041Q903 1006 903 912Q903 732 806 732Z" />
    <path id="glyph-bold-006b" d="M943 -41Q864 -41 823 35Q774 126 676 250Q524 443 515 455Q435 396 383 365Q373 226 373 99Q373 41 334.0 3.0Q295 -35 235 -35Q94 -35 94 133Q94 212 105.5 369.5Q117 527 117 606Q117 751 121.5 937.5Q126 1124 126 1267Q126 1310 121.5 1368.5Q117 1427 117 1470Q117 1528 156.0 1565.5Q195 1603 255 1603Q315 1603 354.0 1565.5Q393 1528 393 1470Q393 1426 398.0 1366.0Q403 1306 403 1262Q403 1143 397 980Q391 824 392 702Q528 807 806 1084Q850 1128 906 1128Q962 1128 1005.0 1087.0Q1048 1046 1048 992Q1048 946 1009 903Q891 771 728 627L936 359Q1087 158 1087 91Q1087 36 1043.0 -2.5Q999 -41 943 -41Z" />
    <path id="glyph-bold-0061" d="M965 -66Q919 -66 819 34Q727 -10 657.0 -32.5Q587 -55 538 -55Q297 -55 176.5 74.0Q56 203 56 460Q56 701 234.0 872.5Q412 1044 660 1044Q755 1044 880 990Q1031 925 1031 839Q1031 803 1008 776Q998 736 992.5 675.5Q987 615 987 534Q987 343 1014 259Q1017 250 1060 155Q1099 69 1099 57Q1099 4 1058.5 -31.0Q1018 -66 965 -66ZM717 620Q717 652 721.5 693.5Q726 735 735 786Q715 796 699.5 800.5Q684 805 673 805Q537 805 435.0 698.5Q333 592 333 452Q333 318 381.0 250.5Q429 183 525 183Q587 183 642.5 203.5Q698 224 747 264Q717 502 717 620Z" />
    <path id="glyph-bold-0067" d="M1029 596Q987 361 979 100Q969 -223 871 -369Q740 -564 407 -564Q18 -564 18 -410Q18 -355 53.0 -321.0Q88 -287 145 -287Q190 -287 274.0 -304.0Q358 -321 423 -321Q572 -321 643 -230Q711 -141 723 53Q672 1 608.0 -25.0Q544 -51 468 -51Q269 -51 144.5 78.5Q20 208 20 410Q20 682 186 850Q358 1024 651 1024Q745 1024 813.0 1001.0Q881 978 923 931Q1050 916 1050 781Q1050 714 1029 596ZM641 796Q472 796 378 685Q294 584 294 423Q294 304 339.0 244.0Q384 184 474 184Q556 184 639 279Q717 369 728 457Q747 553 772 756Q738 776 705.0 786.0Q672 796 641 796Z" />
    <path id="glyph-bold-006e" d="M890 -71Q767 -71 753 50Q739 153 725 257Q710 367 710 464Q710 490 713.5 553.0Q717 616 717 642Q717 649 719.0 677.5Q721 706 721 724Q721 807 678 807Q586 807 497.5 699.5Q409 592 359 427Q357 394 350 339Q344 294 344 251Q344 223 350.5 166.5Q357 110 357 82Q357 25 317.5 -12.5Q278 -50 218 -50Q158 -50 119.0 -12.5Q80 25 80 82Q80 110 74.0 166.5Q68 223 68 251Q68 347 82.0 518.0Q96 689 96 785Q96 815 92.5 874.5Q89 934 89 963Q89 1019 129.5 1055.5Q170 1092 229 1092Q360 1092 369 935L370 924Q516 1071 678 1071Q867 1071 939 913Q987 807 987 596V525Q986 479 986 460Q986 382 1007.5 259.0Q1029 136 1029 59Q1029 3 989.0 -34.0Q949 -71 890 -71Z" />
    <path id="glyph-bold-002e" d="M441 -104Q374 -104 325.0 -62.5Q276 -21 276 31Q276 84 325.0 126.5Q374 169 441 169Q512 169 558.0 129.0Q604 89 604 31Q604 -22 556.0 -63.0Q508 -104 441 -104Z" />
    <path id="glyph-bold-0047" d="M1335 588Q1267 290 1061 111Q852 -69 571 -69Q305 -69 172.0 71.5Q39 212 39 493Q39 749 165.0 1018.0Q291 1287 489 1454Q628 1571 787 1571Q884 1571 1051 1501Q1249 1418 1249 1324Q1249 1270 1208.0 1227.5Q1167 1185 1107 1185Q1077 1185 974.5 1241.5Q872 1298 787 1298Q697 1298 544 1104Q321 822 321 493Q321 326 370 266Q422 203 571 203Q724 203 840 290Q963 382 1022 558Q790 540 618 463Q587 449 556 449Q494 449 453 495Q416 536 416 588Q416 741 778 802Q982 836 1254 836Q1314 836 1354.5 797.0Q1395 758 1395 701Q1395 628 1335 588Z" />
    <path id="glyph-bold-0069" d="M330 1202Q266 1202 219.0 1245.0Q172 1288 172 1350Q172 1412 219.0 1455.0Q266 1498 330 1498Q394 1498 440.5 1455.0Q487 1412 487 1350Q487 1288 440.5 1245.0Q394 1202 330 1202ZM415 469Q415 412 418.5 286.0Q422 160 422 103Q422 45 383.0 7.5Q344 -30 284 -30Q224 -30 185.0 7.5Q146 45 146 103Q146 160 142.5 286.0Q139 412 139 469Q139 558 149.0 692.0Q159 826 159 915Q159 973 198.0 1010.5Q237 1048 297 1048Q357 1048 396.0 1010.5Q435 973 435 915Q435 826 425.0 692.0Q415 558 415 469Z" />
    <path id="glyph-bold-0076" d="M639 74Q634 24 598.0 -8.0Q562 -40 509 -40Q408 -40 366 64Q258 334 35 870Q22 900 22 927Q22 981 65.5 1018.5Q109 1056 165 1056Q251 1056 288 977Q345 856 510 411Q563 524 656 755Q684 832 743 970Q784 1050 867 1050Q923 1050 966.5 1013.0Q1010 976 1010 921Q1010 885 848 525Q716 231 639 74Z" />
    <path id="glyph-bold-0063" d="M562 -63Q342 -63 193 62Q36 194 36 410Q36 609 177 821Q337 1063 549 1063Q653 1063 792 1007Q961 938 961 848Q961 799 927 761Q891 720 834 720Q791 720 730.5 766.5Q670 813 549 813Q472 813 382 662Q296 516 296 410Q296 305 372 245Q444 188 562 188Q629 188 726.0 239.0Q823 290 849 290Q903 290 941.5 251.0Q980 212 980 162Q980 84 810 6Q658 -63 562 -63Z" />
    <path id="glyph-regular-0050" d="M413 587Q385 587 291 600Q283 449 283 71Q283 31 257.0 3.5Q231 -24 192 -24Q152 -24 126.0 3.5Q100 31 100 71V365Q100 512 118 779Q138 1068 140 1193V1331Q140 1430 152 1475Q175 1563 250 1551Q282 1561 341.0 1566.0Q400 1571 486 1571Q669 1571 829 1446Q1005 1308 1005 1114Q1005 866 817 719Q649 587 413 587ZM463 1381Q419 1381 384.5 1379.0Q350 1377 326 1373L324 1189L303 791L413 778Q581 778 696 863Q822 956 822 1114Q822 1226 702 1307Q591 1381 463 1381Z" />
    <path id="glyph-regular-0072" d="M917 739Q910 614 817 614Q731 614 731 713Q731 732 728 783L725 867Q567 848 472 778Q383 713 324 582L326 34Q326 -67 227 -67Q139 -67 139 34V736Q139 769 141.5 835.0Q144 901 144 934Q144 1035 232 1035Q330 1035 331 869Q523 1054 757 1054Q838 1054 878.0 993.0Q918 932 918 809Q918 757 917 739Z" />
    <path id="glyph-regular-0065" d="M606 -46Q380 -46 240 67Q87 192 87 417Q87 677 213 853Q350 1045 579 1045Q745 1045 850 989Q979 920 979 777Q979 677 866 595Q816 559 654 483L272 302Q328 219 411.5 177.0Q495 135 606 135Q675 135 768 161Q886 194 920.0 247.5Q954 301 993 301Q1028 301 1055.5 274.5Q1083 248 1083 213Q1083 102 904 22Q751 -46 606 -46ZM579 865Q457 865 376.0 770.5Q295 676 255 486L562 632Q743 720 820 785Q734 865 579 865Z" />
    <path id="glyph-regular-0070" d="M564 -35Q464 -35 344 -3L342 -481Q342 -525 314.5 -553.0Q287 -581 244 -581Q201 -581 173.5 -553.0Q146 -525 146 -481L149 -81V318Q146 537 134 717L119 920Q119 991 145 1040Q175 1099 232 1099Q271 1099 297.5 1071.5Q324 1044 324 1004Q324 995 321 971Q316 940 314 914Q400 973 480.0 1002.5Q560 1032 633 1032Q838 1032 933 850Q1008 706 1008 469Q1008 253 892 113Q769 -35 564 -35ZM633 832Q541 832 467 791Q414 762 333 685Q346 458 346 208Q455 166 564 166Q689 166 755 259Q812 340 812 469Q812 651 767.5 741.5Q723 832 633 832Z" />
    <path id="glyph-regular-0061" d="M920 -66Q901 -66 851 -22Q806 19 784 51Q688 -1 615.0 -27.5Q542 -54 493 -54Q259 -54 152 78Q51 202 51 458Q51 700 217.5 872.0Q384 1044 615 1044Q702 1044 810 999Q946 943 946 864Q946 837 926 816Q916 778 910.5 691.0Q905 604 904 468Q903 344 921 272Q931 228 984 96Q991 78 1007 43L1013 26Q1013 -14 985.0 -40.0Q957 -66 920 -66ZM712 629Q712 672 717.5 722.5Q723 773 734 830Q697 849 670.5 858.0Q644 867 628 867Q473 867 360.5 740.5Q248 614 248 449Q248 285 306.0 203.0Q364 121 480 121Q576 121 643 156Q679 175 744 232Q712 497 712 629Z" />
    <path id="glyph-regular-0074" d="M808 852Q787 852 758.5 854.0Q730 856 709 856Q686 856 573 841L592 250L593 206L594 155Q598 -64 489 -64Q449 -64 419.5 -38.0Q390 -12 390 27Q390 65 393.0 141.0Q396 217 396 255L376 839Q303 842 154 856Q65 868 65 955Q65 999 92.0 1028.0Q119 1057 161 1057L371 1040Q371 1091 366.5 1176.5Q362 1262 362 1300Q362 1342 391.0 1369.5Q420 1397 462 1397Q552 1397 567 1250Q570 1213 570 1161L568 1103L567 1041Q691 1057 709 1057Q813 1057 845 1047Q906 1027 906 953Q906 909 878.5 880.5Q851 852 808 852Z" />
    <path id="glyph-regular-0068" d="M976 -62Q905 -62 883 14Q860 96 841 247Q823 392 823 485Q823 511 825.5 564.0Q828 617 828 643Q828 831 734 831Q607 831 507 716Q456 657 367 491Q367 110 335 40Q307 -22 248 -22Q207 -22 176.0 6.0Q145 34 145 74Q145 88 154 118Q162 143 165 264L168 412L171 1147Q178 1271 178 1314Q178 1365 168.5 1410.5Q159 1456 159 1505Q159 1547 188.0 1574.5Q217 1602 259 1602Q341 1602 355 1514Q371 1417 371 1339Q371 1234 364 1120Q358 1011 359 901L360 813Q442 923 535.5 977.5Q629 1032 734 1032Q900 1032 962 924Q1006 848 1012 668L1020 477L1040 269Q1054 152 1074 63Q1078 46 1078 34Q1078 -7 1048.0 -34.5Q1018 -62 976 -62Z" />
    <path id="glyph-regular-0077" d="M1336 895Q1258 569 1132 158Q1104 67 1039 -29Q1004 -82 944 -81Q835 -79 774 190Q754 276 733 424L700 647L618 456L466 43Q453 5 428 -15Q398 -73 332 -75Q256 -78 185 223Q149 378 113 643L89 793Q76 883 76 944Q76 986 105.5 1013.5Q135 1041 177 1041Q253 1041 271 958Q284 899 292 812L307 665L366 216Q477 524 596 926Q629 1037 711 1037Q790 1037 818 913Q844 796 883 553Q923 301 954 160L1027 432L1156 977Q1171 1038 1242 1038Q1284 1038 1315.0 1009.5Q1346 981 1346 941Q1346 936 1336 895Z" />
    <path id="glyph-regular-006f" d="M514 -59Q346 -59 225 65Q90 203 83 436Q77 662 197 834Q337 1037 587 1037Q787 1037 890 854Q972 706 969 498Q966 276 853 119Q725 -59 514 -59ZM574 834Q427 835 345 694Q280 581 280 436Q280 291 359 210Q425 143 514 143Q618 143 693 219Q778 303 783 446Q797 833 574 834Z" />
    <path id="glyph-regular-0046" d="M1106 1314Q1088 1314 1068 1322Q944 1368 740 1368Q674 1368 585.5 1358.5Q497 1349 387 1329L385 897Q578 948 675 948Q829 948 994 930Q1088 920 1088 828Q1088 783 1059.0 753.5Q1030 724 987 724Q935 724 831.0 733.0Q727 742 675 742Q607 742 381 684L372 -4Q372 -47 344.0 -76.5Q316 -106 273 -106Q230 -106 201.5 -76.5Q173 -47 173 -4Q173 193 180.5 587.5Q188 982 188 1179Q188 1223 186.5 1311.5Q185 1400 185 1444Q185 1488 212.5 1518.0Q240 1548 284 1548Q317 1548 343 1530Q467 1552 566.0 1562.5Q665 1573 740 1573Q855 1573 1003 1540Q1204 1494 1204 1420Q1204 1380 1178 1349Q1149 1314 1106 1314Z" />
    <path id="glyph-regular-0075" d="M955 584Q955 512 956.0 368.0Q957 224 957 152Q957 130 960.5 85.0Q964 40 964 18Q964 -25 935.0 -52.5Q906 -80 864 -80Q787 -80 766 15Q641 -50 478 -50Q347 -50 261 8Q166 72 148 195Q109 460 109 667Q109 804 139 979Q153 1066 234 1066Q277 1066 306.0 1038.5Q335 1011 335 968Q335 922 320.5 821.0Q306 720 306 667Q306 500 317.0 381.0Q328 262 350 190Q383 172 415.0 162.5Q447 153 478 153Q612 153 761 196L760 399L758 593Q758 809 777 968Q788 1060 874 1060Q917 1060 946.0 1032.0Q975 1004 973 962Z" />
    <path id="glyph-regular-006e" d="M906 -71Q820 -71 809 23L781 242Q767 359 767 461Q767 489 770.5 556.0Q774 623 774 651Q774 867 694 867Q582 867 480 734Q388 613 336 428Q334 389 327 330Q321 280 321 233Q321 203 327.0 143.0Q333 83 333 53Q333 8 305.5 -20.0Q278 -48 235 -48Q191 -48 164.0 -20.0Q137 8 137 53Q137 83 130.5 143.0Q124 203 124 233Q124 336 138.5 518.5Q153 701 153 804Q153 836 149.5 899.0Q146 962 146 994Q146 1037 174.5 1064.5Q203 1092 245 1092Q337 1092 346 962L349 845Q517 1069 694 1069Q854 1069 917 928Q960 834 964 650V549L963 456Q963 373 984.5 241.5Q1006 110 1006 28Q1006 -16 977.5 -43.5Q949 -71 906 -71Z" />
    <path id="glyph-regular-0064" d="M1060 883Q1048 736 1048 589Q1048 256 1079 86Q1081 72 1081 63Q1081 23 1053.0 -3.0Q1025 -29 988 -29Q926 -29 897 61Q825 8 747.5 -19.0Q670 -46 586 -46Q379 -46 243 92Q103 233 103 454Q103 721 244.5 882.0Q386 1043 612 1043Q728 1043 791 1007L885 938Q899 1359 918 1505Q931 1594 1009 1594Q1100 1594 1100 1497Q1100 1358 1060 883ZM616 857Q448 857 364.0 757.5Q280 658 280 458Q280 329 371.5 236.0Q463 143 586 143Q670 143 728 174Q762 192 839 257Q854 270 868 288L865 461L866 577L868 695Q830 776 767.0 816.5Q704 857 616 857Z" />
    <path id="glyph-regular-0079" d="M1011 892 665 144Q537 -129 469 -313L403 -507Q377 -579 313 -579Q271 -579 240.5 -551.5Q210 -524 210 -483Q210 -383 426 96L68 785L23 858Q-4 904 -4 935Q-4 976 27.5 1007.0Q59 1038 98 1038Q144 1038 169 1003Q339 767 534 331L682 676Q762 855 836 984Q868 1040 920 1040Q961 1040 992.5 1011.0Q1024 982 1024 942Q1024 920 1011 892Z" />
    <path id="glyph-regular-0076" d="M600 52Q597 -40 509 -40Q436 -40 403 46L250 452L72 911Q62 937 62 957Q62 998 93.0 1027.0Q124 1056 165 1056Q225 1056 251 995L505 296Q580 456 694 760Q721 840 779 986Q810 1050 867 1050Q908 1050 939.0 1021.0Q970 992 970 952Q970 914 805 524Z" />
    <path id="glyph-regular-0073" d="M814 770Q759 770 737 807Q722 833 711 915Q636 896 480 845Q319 781 318 687Q348 676 377 671Q607 630 719 558Q882 453 882 254Q882 91 741 8Q624 -60 445 -60Q314 -60 195 -16Q41 40 41 140Q41 180 72.5 210.0Q104 240 144 240Q175 240 224 192Q248 169 332 154Q399 142 445 142Q529 142 593 162Q686 191 686 254Q686 390 496 438L392 461Q259 490 203 529Q122 585 122 698Q122 907 319 996Q379 1023 511.0 1060.5Q643 1098 700 1124Q741 1142 789 1142Q832 1142 859.5 1114.0Q887 1086 887 1041Q887 1012 899.5 956.0Q912 900 912 871Q912 826 884.5 798.0Q857 770 814 770Z" />
    <path id="glyph-regular-0069" d="M330 1266Q282 1266 247.0 1300.0Q212 1334 212 1382Q212 1430 247.0 1464.0Q282 1498 330 1498Q378 1498 412.5 1464.0Q447 1430 447 1382Q447 1334 412.5 1300.0Q378 1266 330 1266ZM375 454Q375 394 378.5 274.5Q382 155 382 95Q382 51 355.0 23.0Q328 -5 284 -5Q241 -5 213.5 23.0Q186 51 186 95Q186 155 182.5 274.5Q179 394 179 454Q179 548 189.0 688.5Q199 829 199 923Q199 968 226.5 996.0Q254 1024 297 1024Q340 1024 367.5 996.0Q395 968 395 923Q395 829 385.0 688.5Q375 548 375 454Z" />
    <path id="glyph-regular-0067" d="M962 431 939 95Q933 -105 898 -232Q853 -394 754 -471Q634 -564 407 -564Q274 -564 184 -546Q58 -521 58 -442Q58 -353 145 -353Q181 -353 265.0 -370.5Q349 -388 451 -386Q643 -383 716 -200Q764 -78 767 175Q713 75 638.5 25.0Q564 -25 468 -25Q287 -25 173.5 98.5Q60 222 60 419Q60 689 215 854Q375 1024 651 1024Q744 1024 807.0 1000.0Q870 976 903 928Q1010 925 1010 809Q1010 738 989 619Q966 481 962 431ZM641 864Q451 864 347 733Q254 615 254 433Q254 288 309.0 215.0Q364 142 474 142Q575 142 670 256Q756 361 768 464Q789 572 813 803Q773 834 730.0 849.0Q687 864 641 864Z" />
    <path id="glyph-regular-006b" d="M972 -41Q917 -41 887 17Q835 118 730 256L553 497Q495 451 373 368Q362 213 362 66Q362 21 334.5 -7.0Q307 -35 264 -35Q163 -35 163 101Q163 184 174.5 349.5Q186 515 186 598Q186 750 190.5 945.5Q195 1141 195 1291Q195 1336 190.5 1397.0Q186 1458 186 1503Q186 1548 213.5 1576.0Q241 1604 284 1604Q327 1604 354.5 1576.0Q382 1548 382 1503Q382 1457 387.0 1394.5Q392 1332 392 1286L385 964Q380 790 382 616Q518 720 644 844L864 1071Q897 1105 935 1105Q974 1105 1005.5 1074.0Q1037 1043 1037 1002Q1037 968 1008 935Q885 791 705 626L923 329Q1076 120 1076 57Q1076 17 1044.5 -12.0Q1013 -41 972 -41Z" />
    <path id="glyph-regular-002e" d="M267 -93Q215 -93 179.0 -57.0Q143 -21 143 31Q143 82 179.0 118.5Q215 155 267 155Q318 155 354.5 118.5Q391 82 391 31Q391 -21 354.5 -57.0Q318 -93 267 -93Z" />
  </defs>
  <path d="M0 0H1200V300H0Z" fill="#f3f8fc" aria-hidden="true" />
  <path id="host-setup-ink-002" d="M29 27 L57.615 25.5823 L85.748 24.6582 L113.4563 24.1589 L140.7969 24.0156 L167.8269 24.1594 L194.6035 24.5215 L221.1838 25.033 L247.625 25.625 L273.9841 26.2288 L300.3184 26.7754 L326.6848 27.196 L353.1406 27.4219 L379.7429 27.384 L406.5488 27.0137 L433.6155 26.2419 L461 25 L503.5693 23.7803 L545.8516 23.0703 L587.958 22.7939 L630 22.875 L672.0889 23.2373 L714.3359 23.8047 L756.8525 24.501 L799.75 25.25 L843.1396 25.9756 L887.1328 26.6016 L931.8408 27.0518 L977.375 27.25 L1023.8467 27.1201 L1071.3672 26.5859 L1120.0479 25.5713 L1170 24" fill="none" stroke="#d6e7f5" stroke-width="2.2" stroke-linecap="round" stroke-linejoin="round" />
  <path id="host-setup-ink-003" d="M29 277 L60.3259 278.3958 L90.9824 279.2598 L121.05 279.6697 L150.6094 279.7031 L179.741 279.4377 L208.5254 278.9512 L237.0432 278.321 L265.375 277.625 L293.6013 276.9407 L321.8027 276.3457 L350.0598 275.9177 L378.4531 275.7344 L407.0632 275.8733 L435.9707 276.4121 L465.2561 277.4285 L495 279 L535.5725 280.2083 L576.2988 280.8848 L617.1921 281.1072 L658.2656 280.9531 L699.5325 280.5002 L741.0059 279.8262 L782.699 279.0085 L824.625 278.125 L866.7971 277.2532 L909.2285 276.4707 L951.9324 275.8552 L994.9219 275.4844 L1038.2102 275.4358 L1081.8105 275.7871 L1125.7361 276.616 L1170 278" fill="none" stroke="#d6e7f5" stroke-width="2.2" stroke-linecap="round" stroke-linejoin="round" />
  <path id="host-setup-ink-004" d="M394.5387 259 L394.2873 259.5154 L392.7816 260.0282 L390.0463 260.5339 L386.1354 261.0282 L381.1236 261.5076 L375.0953 261.9691 L368.1347 262.4107 L360.3177 262.8304 L351.708 263.2265 L342.3568 263.5972 L332.3072 263.9406 L321.5997 264.2541 L310.2796 264.5353 L298.4028 264.7814 L286.0385 264.9902 L273.2694 265.1598 L260.1876 265.2893 L246.8889 265.3786 L233.4655 265.4284 L220 265.4401 L206.5618 265.4154 L193.2068 265.3559 L179.9812 265.2629 L166.9284 265.137 L154.0968 264.9779 L141.5484 264.785 L129.3645 264.5571 L117.6471 264.2931 L106.5167 263.9923 L96.1045 263.655 L86.5413 263.2827 L77.9458 262.8778 L70.4124 262.4442 L64.0025 261.9864 L58.7411 261.5097 L54.6178 261.019 L51.5937 260.5191 L49.6124 260.014 L48.6122 259.5068 L48.5387 259 L49.3539 258.4954 L51.0414 257.9946 L53.6063 257.4991 L57.0699 257.011 L61.4613 256.5327 L66.8071 256.0673 L73.1212 255.6182 L80.3979 255.1892 L88.6075 254.7837 L97.6979 254.4048 L107.5982 254.0553 L118.226 253.7369 L129.4951 253.4509 L141.3221 253.1983 L153.63 252.9798 L166.3495 252.7961 L179.4155 252.6485 L192.7626 252.5387 L206.3186 252.4685 L220 252.4401 L233.7086 252.4555 L247.3331 252.516 L260.7533 252.6221 L273.8482 252.7732 L286.5052 252.9675 L298.6291 253.2019 L310.149 253.4728 L321.0208 253.7758 L331.2258 254.107 L340.7634 254.4626 L349.6418 254.8398 L357.8657 255.2366 L365.4258 255.6517 L372.2908 256.0845 L378.4034 256.5348 L383.6834 257.0018 L388.0337 257.4843 L391.3526 257.9803 L393.5456 258.4868 Z" fill="#e2eef7" stroke="none" stroke-width="0" stroke-linecap="round" stroke-linejoin="round" />
  <path id="host-setup-ink-005" d="M51 111 L53.3345 105.3652 L56.1758 100.0938 L59.4683 95.1973 L63.1562 90.6875 L67.1841 86.5762 L71.4961 82.875 L76.0366 79.5957 L80.75 76.75 L85.5806 74.3496 L90.4727 72.4062 L95.3706 70.9316 L100.2188 69.9375 L104.9614 69.4355 L109.543 69.4375 L113.9077 69.9551 L118 71" fill="none" stroke="#dfedf8" stroke-width="2" stroke-linecap="round" stroke-linejoin="round" />
  <path id="host-setup-ink-006" d="M210 66 L214.5764 66.6042 L218.9722 67.4167 L223.1875 68.4375 L227.2222 69.6667 L231.0764 71.1042 L234.75 72.75 L238.2431 74.6042 L241.5556 76.6667 L244.6875 78.9375 L247.6389 81.4167 L250.4097 84.1042 L253 87" fill="none" stroke="#dfedf8" stroke-width="2" stroke-linecap="round" stroke-linejoin="round" />
  <path id="host-setup-ink-007" d="M44.1224 108 L44.12 108.1669 L44.102 108.3329 L44.0686 108.4966 L44.0206 108.6565 L43.959 108.8114 L43.885 108.9604 L43.7997 109.1029 L43.7041 109.2381 L43.5992 109.3658 L43.4853 109.4853 L43.3632 109.596 L43.2331 109.6972 L43.0956 109.7879 L42.9514 109.8672 L42.8012 109.9343 L42.6462 109.9887 L42.4873 110.0299 L42.326 110.0581 L42.1632 110.0735 L42 110.0768 L41.8372 110.0685 L41.6754 110.0493 L41.5151 110.0197 L41.3567 109.9798 L41.2007 109.9296 L41.0479 109.8686 L40.8992 109.7963 L40.7559 109.7123 L40.6197 109.6161 L40.4923 109.5077 L40.3753 109.3876 L40.2706 109.2565 L40.1791 109.1158 L40.1019 108.9671 L40.0391 108.8122 L39.9904 108.653 L39.9553 108.4909 L39.9329 108.3274 L39.9222 108.1635 L39.9224 108 L39.933 107.8373 L39.9537 107.6759 L39.9846 107.5162 L40.0261 107.3586 L40.0787 107.2042 L40.1427 107.0537 L40.2186 106.9084 L40.3063 106.7694 L40.4054 106.6381 L40.5155 106.5155 L40.6355 106.4023 L40.7644 106.2993 L40.9011 106.2068 L41.0446 106.125 L41.194 106.054 L41.3483 105.9942 L41.5069 105.946 L41.6689 105.9098 L41.8337 105.8865 L42 105.8768 L42.1667 105.8815 L42.3324 105.901 L42.4956 105.9357 L42.6546 105.9854 L42.808 106.0493 L42.9547 106.1263 L43.0937 106.2152 L43.2246 106.3144 L43.3474 106.4224 L43.4621 106.5379 L43.5691 106.6599 L43.6684 106.7878 L43.7602 106.9213 L43.8441 107.0604 L43.9194 107.205 L43.9848 107.3551 L44.0393 107.5104 L44.0812 107.6704 L44.1092 107.834 Z" fill="#d6e7f5" stroke="none" stroke-width="0" stroke-linecap="round" stroke-linejoin="round" />
  <path id="host-setup-ink-008" d="M56.8192 92 L56.8172 92.143 L56.8017 92.2854 L56.7731 92.4257 L56.7319 92.5627 L56.6791 92.6955 L56.6157 92.8232 L56.5426 92.9453 L56.4607 93.0613 L56.3707 93.1707 L56.2731 93.2731 L56.1684 93.368 L56.0569 93.4547 L55.9391 93.5325 L55.8155 93.6004 L55.6868 93.658 L55.5539 93.7046 L55.4177 93.7399 L55.2794 93.7641 L55.1399 93.7773 L55 93.7801 L54.8605 93.773 L54.7218 93.7566 L54.5844 93.7312 L54.4486 93.697 L54.3149 93.6539 L54.1839 93.6016 L54.0565 93.5397 L53.9337 93.4677 L53.8169 93.3852 L53.7077 93.2923 L53.6074 93.1894 L53.5176 93.077 L53.4393 92.9564 L53.373 92.829 L53.3192 92.6962 L53.2775 92.5597 L53.2474 92.4208 L53.2282 92.2806 L53.219 92.1402 L53.2192 92 L53.2283 91.8606 L53.246 91.7222 L53.2725 91.5853 L53.3081 91.4503 L53.3532 91.3179 L53.4081 91.1889 L53.4731 91.0643 L53.5482 90.9452 L53.6332 90.8327 L53.7275 90.7275 L53.8304 90.6306 L53.9409 90.5423 L54.0581 90.463 L54.1811 90.3928 L54.3091 90.332 L54.4414 90.2808 L54.5773 90.2394 L54.7162 90.2084 L54.8574 90.1884 L55 90.1801 L55.1429 90.1841 L55.285 90.2009 L55.4248 90.2306 L55.5611 90.2732 L55.6926 90.3279 L55.8183 90.394 L55.9375 90.4702 L56.0497 90.5552 L56.1549 90.6478 L56.2532 90.7468 L56.3449 90.8513 L56.4301 90.961 L56.5088 91.0754 L56.5807 91.1946 L56.6452 91.3186 L56.7013 91.4472 L56.7479 91.5804 L56.7839 91.7175 L56.8079 91.8577 Z" fill="#d6e7f5" stroke="none" stroke-width="0" stroke-linecap="round" stroke-linejoin="round" />
  <path id="host-setup-ink-009" d="M220.0213 73 L220.0191 73.1589 L220.0019 73.3171 L219.9701 73.473 L219.9243 73.6253 L219.8657 73.7728 L219.7952 73.9147 L219.714 74.0503 L219.623 74.1792 L219.523 74.3008 L219.4146 74.4146 L219.2982 74.52 L219.1744 74.6164 L219.0434 74.7027 L218.9061 74.7783 L218.7631 74.8422 L218.6154 74.894 L218.4641 74.9333 L218.3105 74.9601 L218.1554 74.9748 L218 74.9779 L217.845 74.97 L217.6909 74.9517 L217.5382 74.9235 L217.3874 74.8855 L217.2388 74.8377 L217.0933 74.7796 L216.9516 74.7108 L216.8152 74.6308 L216.6854 74.5391 L216.5641 74.4359 L216.4527 74.3215 L216.3529 74.1967 L216.2659 74.0627 L216.1923 73.9211 L216.1324 73.7736 L216.0861 73.6219 L216.0527 73.4675 L216.0313 73.3118 L216.0211 73.1557 L216.0213 73 L216.0314 72.8451 L216.0511 72.6913 L216.0806 72.5392 L216.1201 72.3892 L216.1702 72.2421 L216.2312 72.0987 L216.3034 71.9603 L216.3869 71.828 L216.4814 71.703 L216.5862 71.5862 L216.7004 71.4784 L216.8232 71.3803 L216.9534 71.2922 L217.0901 71.2142 L217.2323 71.1467 L217.3793 71.0898 L217.5304 71.0438 L217.6847 71.0094 L217.8416 70.9871 L218 70.9779 L218.1588 70.9823 L218.3166 71.001 L218.472 71.034 L218.6234 71.0813 L218.7695 71.1422 L218.9092 71.2156 L219.0416 71.3002 L219.1663 71.3947 L219.2832 71.4975 L219.3925 71.6075 L219.4943 71.7237 L219.589 71.8455 L219.6764 71.9727 L219.7563 72.1051 L219.828 72.2428 L219.8903 72.3858 L219.9422 72.5337 L219.9821 72.6861 L220.0088 72.8419 Z" fill="#d6e7f5" stroke="none" stroke-width="0" stroke-linecap="round" stroke-linejoin="round" />
  <path id="host-setup-ink-010" d="M232.7181 81 L232.7162 81.1351 L232.7016 81.2695 L232.6746 81.402 L232.6357 81.5315 L232.5858 81.6569 L232.5259 81.7775 L232.4569 81.8928 L232.3795 82.0023 L232.2946 82.1057 L232.2024 82.2024 L232.1035 82.292 L231.9982 82.3739 L231.8869 82.4473 L231.7702 82.5115 L231.6486 82.5659 L231.5231 82.6099 L231.3945 82.6433 L231.2639 82.6661 L231.1321 82.6786 L231 82.6812 L230.8682 82.6745 L230.7372 82.659 L230.6075 82.635 L230.4792 82.6027 L230.353 82.562 L230.2293 82.5127 L230.1089 82.4542 L229.9929 82.3861 L229.8826 82.3083 L229.7795 82.2205 L229.6848 82.1233 L229.6 82.0172 L229.526 81.9033 L229.4634 81.7829 L229.4126 81.6575 L229.3732 81.5286 L229.3448 81.3974 L229.3266 81.265 L229.318 81.1324 L229.3181 81 L229.3267 80.8683 L229.3435 80.7376 L229.3685 80.6083 L229.4021 80.4808 L229.4446 80.3558 L229.4965 80.2339 L229.5579 80.1163 L229.6289 80.0038 L229.7092 79.8975 L229.7982 79.7982 L229.8954 79.7067 L229.9997 79.6233 L230.1104 79.5483 L230.2266 79.4821 L230.3475 79.4247 L230.4724 79.3763 L230.6008 79.3372 L230.732 79.308 L230.8653 79.2891 L231 79.2812 L231.135 79.285 L231.2691 79.3008 L231.4012 79.3289 L231.5299 79.3691 L231.6541 79.4208 L231.7728 79.4832 L231.8854 79.5552 L231.9914 79.6355 L232.0908 79.7229 L232.1836 79.8164 L232.2702 79.9152 L232.3506 80.0187 L232.425 80.1268 L232.4929 80.2394 L232.5538 80.3564 L232.6068 80.4779 L232.6508 80.6037 L232.6848 80.7332 L232.7075 80.8656 Z" fill="#d6e7f5" stroke="none" stroke-width="0" stroke-linecap="round" stroke-linejoin="round" />
  <path id="host-setup-ink-011" d="M402.0213 247 L402.0191 247.1589 L402.0019 247.3171 L401.9701 247.473 L401.9243 247.6253 L401.8657 247.7728 L401.7952 247.9147 L401.714 248.0503 L401.623 248.1792 L401.523 248.3008 L401.4146 248.4146 L401.2982 248.52 L401.1744 248.6164 L401.0434 248.7027 L400.9061 248.7783 L400.7631 248.8422 L400.6154 248.894 L400.4641 248.9333 L400.3105 248.9601 L400.1554 248.9748 L400 248.9779 L399.845 248.97 L399.6909 248.9517 L399.5382 248.9235 L399.3874 248.8855 L399.2388 248.8377 L399.0933 248.7796 L398.9516 248.7108 L398.8152 248.6308 L398.6854 248.5391 L398.5641 248.4359 L398.4527 248.3215 L398.3529 248.1967 L398.2659 248.0627 L398.1923 247.9211 L398.1324 247.7736 L398.0861 247.6219 L398.0527 247.4675 L398.0313 247.3118 L398.0211 247.1557 L398.0213 247 L398.0314 246.8451 L398.0511 246.6913 L398.0806 246.5392 L398.1201 246.3892 L398.1702 246.2421 L398.2312 246.0987 L398.3034 245.9603 L398.3869 245.828 L398.4814 245.703 L398.5862 245.5862 L398.7004 245.4784 L398.8232 245.3803 L398.9534 245.2922 L399.0901 245.2142 L399.2323 245.1467 L399.3793 245.0898 L399.5304 245.0438 L399.6847 245.0094 L399.8416 244.9871 L400 244.9779 L400.1588 244.9823 L400.3166 245.001 L400.472 245.034 L400.6234 245.0813 L400.7695 245.1422 L400.9092 245.2156 L401.0416 245.3002 L401.1663 245.3947 L401.2832 245.4975 L401.3925 245.6075 L401.4943 245.7237 L401.589 245.8455 L401.6764 245.9727 L401.7563 246.1051 L401.828 246.2428 L401.8903 246.3858 L401.9422 246.5337 L401.9821 246.6861 L402.0088 246.8419 Z" fill="#d6e7f5" stroke="none" stroke-width="0" stroke-linecap="round" stroke-linejoin="round" />
  <path id="host-setup-ink-012" d="M419 115 L427 112" fill="none" stroke="#e77724" stroke-width="2.7" stroke-linecap="round" stroke-linejoin="round" />
  <path id="host-setup-ink-013" d="M418 131 L429 134" fill="none" stroke="#e77724" stroke-width="2.7" stroke-linecap="round" stroke-linejoin="round" />
  <path id="host-setup-ink-015" d="M122 233 L121 251 L136 252 L140 232 Z" fill="#ffffff" stroke="#172b4d" stroke-width="3.6" stroke-linecap="round" stroke-linejoin="round" />
  <path id="host-setup-ink-016" d="M164 233 L168 250 L183 248 L182 230 Z" fill="#ffffff" stroke="#172b4d" stroke-width="3.6" stroke-linecap="round" stroke-linejoin="round" />
  <path id="host-setup-ink-017" d="M120 249 L118.3889 248.9097 L116.8889 248.9722 L115.5 249.1875 L114.2222 249.5556 L113.0556 250.0764 L112 250.75 L111.0556 251.5764 L110.2222 252.5556 L109.5 253.6875 L108.8889 254.9722 L108.3889 256.4097 L108 258 L141 259 L141 250 Z" fill="#cfe4fa" stroke="#172b4d" stroke-width="3.5" stroke-linecap="round" stroke-linejoin="round" />
  <path id="host-setup-ink-018" d="M168 248 L185 246 L186.7639 246.3819 L188.3889 246.8611 L189.875 247.4375 L191.2222 248.1111 L192.4306 248.8819 L193.5 249.75 L194.4306 250.7153 L195.2222 251.7778 L195.875 252.9375 L196.3889 254.1944 L196.7639 255.5486 L197 257 L166 258 Z" fill="#cfe4fa" stroke="#172b4d" stroke-width="3.5" stroke-linecap="round" stroke-linejoin="round" />
  <path id="host-setup-ink-019" d="M112 257 L137 257" fill="none" stroke="#0078d4" stroke-width="1.8" stroke-linecap="round" stroke-linejoin="round" />
  <path id="host-setup-ink-020" d="M171 256 L192 255" fill="none" stroke="#0078d4" stroke-width="1.8" stroke-linecap="round" stroke-linejoin="round" />
  <path id="host-setup-ink-021" d="M118 194 L113.7569 195.9653 L109.6944 197.5278 L105.8125 198.6875 L102.1111 199.4444 L98.5903 199.7986 L95.25 199.75 L92.0903 199.2986 L89.1111 198.4444 L86.3125 197.1875 L83.6944 195.5278 L81.2569 193.4653 L79 191 L63 167" fill="none" stroke="#172b4d" stroke-width="10.2" stroke-linecap="round" stroke-linejoin="round" />
  <path id="host-setup-ink-022" d="M118 194 L113.7569 195.9653 L109.6944 197.5278 L105.8125 198.6875 L102.1111 199.4444 L98.5903 199.7986 L95.25 199.75 L92.0903 199.2986 L89.1111 198.4444 L86.3125 197.1875 L83.6944 195.5278 L81.2569 193.4653 L79 191 L63 167" fill="none" stroke="#cfe4fa" stroke-width="5.3" stroke-linecap="round" stroke-linejoin="round" />
  <path id="host-setup-ink-023" d="M187 194 L191.5556 197.8333 L196.2222 201 L201 203.5 L205.8889 205.3333 L210.8889 206.5 L216 207 L221.2222 206.8333 L226.5556 206 L232 204.5 L237.5556 202.3333 L243.2222 199.5 L249 196" fill="none" stroke="#172b4d" stroke-width="10.2" stroke-linecap="round" stroke-linejoin="round" />
  <path id="host-setup-ink-024" d="M187 194 L191.5556 197.8333 L196.2222 201 L201 203.5 L205.8889 205.3333 L210.8889 206.5 L216 207 L221.2222 206.8333 L226.5556 206 L232 204.5 L237.5556 202.3333 L243.2222 199.5 L249 196" fill="none" stroke="#cfe4fa" stroke-width="5.3" stroke-linecap="round" stroke-linejoin="round" />
  <path id="host-setup-ink-025" d="M100.7076 199.75 L100.7015 200.179 L100.6551 200.6061 L100.5692 201.027 L100.4457 201.4382 L100.2874 201.8365 L100.0971 202.2197 L99.8778 202.5859 L99.6321 202.9338 L99.3621 203.2621 L99.0694 203.5694 L98.7552 203.8541 L98.4208 204.1142 L98.0673 204.3474 L97.6964 204.5513 L97.3103 204.724 L96.9116 204.8637 L96.5032 204.9698 L96.0882 205.0423 L95.6696 205.082 L95.25 205.0903 L94.8314 205.069 L94.4154 205.0197 L94.0032 204.9435 L93.5959 204.8409 L93.1948 204.7117 L92.8018 204.5549 L92.4194 204.3691 L92.051 204.153 L91.7007 203.9057 L91.373 203.627 L91.0723 203.3181 L90.8029 202.981 L90.5678 202.6193 L90.3691 202.2369 L90.2076 201.8386 L90.0825 201.429 L89.9922 201.0123 L89.9346 200.5919 L89.9071 200.1705 L89.9076 199.75 L89.9348 199.3317 L89.9881 198.9166 L90.0676 198.5058 L90.1743 198.1008 L90.3095 197.7036 L90.4742 197.3166 L90.6693 196.9429 L90.8947 196.5857 L91.1497 196.248 L91.4326 195.9326 L91.7412 195.6417 L92.0727 195.3768 L92.4243 195.1389 L92.7933 194.9285 L93.1773 194.7461 L93.5742 194.5923 L93.982 194.4682 L94.3987 194.3753 L94.8223 194.3153 L95.25 194.2903 L95.6787 194.3023 L96.1049 194.3526 L96.5244 194.4419 L96.9332 194.5695 L97.3278 194.7338 L97.7049 194.932 L98.0624 195.1606 L98.3991 195.4156 L98.7147 195.6933 L99.0097 195.9903 L99.2847 196.304 L99.5402 196.633 L99.7763 196.9763 L99.992 197.3338 L100.1855 197.7057 L100.3539 198.0916 L100.4938 198.4911 L100.6016 198.9024 L100.6738 199.3231 Z" fill="#ffffff" stroke="#172b4d" stroke-width="2.6" stroke-linecap="round" stroke-linejoin="round" />
  <path id="host-setup-ink-026" d="M221.4576 207 L221.4515 207.429 L221.4051 207.8561 L221.3192 208.277 L221.1957 208.6882 L221.0374 209.0865 L220.8471 209.4697 L220.6278 209.8359 L220.3821 210.1838 L220.1121 210.5121 L219.8194 210.8194 L219.5052 211.1041 L219.1708 211.3642 L218.8173 211.5974 L218.4464 211.8013 L218.0603 211.974 L217.6616 212.1137 L217.2532 212.2198 L216.8382 212.2923 L216.4196 212.332 L216 212.3403 L215.5814 212.319 L215.1654 212.2697 L214.7532 212.1935 L214.3459 212.0909 L213.9448 211.9617 L213.5518 211.8049 L213.1694 211.6191 L212.801 211.403 L212.4507 211.1557 L212.123 210.877 L211.8223 210.5681 L211.5529 210.231 L211.3178 209.8693 L211.1191 209.4869 L210.9576 209.0886 L210.8325 208.679 L210.7422 208.2623 L210.6846 207.8419 L210.6571 207.4205 L210.6576 207 L210.6848 206.5817 L210.7381 206.1666 L210.8176 205.7558 L210.9243 205.3508 L211.0595 204.9536 L211.2242 204.5666 L211.4193 204.1929 L211.6447 203.8357 L211.8997 203.498 L212.1826 203.1826 L212.4912 202.8917 L212.8227 202.6268 L213.1743 202.3889 L213.5433 202.1785 L213.9273 201.9961 L214.3242 201.8423 L214.732 201.7182 L215.1487 201.6253 L215.5723 201.5653 L216 201.5403 L216.4287 201.5523 L216.8549 201.6026 L217.2744 201.6919 L217.6832 201.8195 L218.0778 201.9838 L218.4549 202.182 L218.8124 202.4106 L219.1491 202.6656 L219.4647 202.9433 L219.7597 203.2403 L220.0347 203.554 L220.2902 203.883 L220.5263 204.2263 L220.742 204.5838 L220.9355 204.9557 L221.1039 205.3416 L221.2438 205.7411 L221.3516 206.1524 L221.4238 206.5731 Z" fill="#ffffff" stroke="#172b4d" stroke-width="2.6" stroke-linecap="round" stroke-linejoin="round" />
  <path id="host-setup-ink-027" d="M71.6918 163 L71.6821 163.7151 L71.6081 164.4268 L71.4713 165.1284 L71.2747 165.8137 L71.0225 166.4776 L70.7194 167.1162 L70.3702 167.7265 L69.9789 168.3063 L69.5489 168.8534 L69.0828 169.3657 L68.5824 169.8402 L68.0498 170.2737 L67.4868 170.6623 L66.8961 171.0022 L66.2812 171.2899 L65.6462 171.5229 L64.9958 171.6997 L64.3349 171.8205 L63.6683 171.8866 L63 171.9005 L62.3333 171.865 L61.6708 171.7828 L61.0143 171.6558 L60.3656 171.4849 L59.7269 171.2696 L59.101 171.0082 L58.492 170.6985 L57.9053 170.3384 L57.3474 169.9262 L56.8255 169.4617 L56.3467 168.9468 L55.9175 168.3851 L55.5432 167.7821 L55.2268 167.1449 L54.9695 166.4811 L54.7702 165.7984 L54.6265 165.1038 L54.5347 164.4031 L54.4909 163.7008 L54.4918 163 L54.5351 162.3028 L54.6199 161.611 L54.7466 160.9264 L54.9165 160.2514 L55.1317 159.5893 L55.3941 158.9443 L55.7048 158.3215 L56.0638 157.7262 L56.4699 157.1634 L56.9205 156.6377 L57.4119 156.1529 L57.9398 155.7114 L58.4998 155.3148 L59.0875 154.9641 L59.699 154.6601 L60.3311 154.4039 L60.9805 154.1971 L61.6443 154.0421 L62.3188 153.9421 L63 153.9005 L63.6828 153.9205 L64.3614 154.0044 L65.0295 154.1532 L65.6807 154.3659 L66.309 154.6397 L66.9096 154.9701 L67.479 155.351 L68.0152 155.7761 L68.5179 156.2389 L68.9877 156.7338 L69.4256 157.2567 L69.8326 157.8049 L70.2086 158.3771 L70.5521 158.973 L70.8602 159.5928 L71.1284 160.2361 L71.3513 160.9018 L71.5229 161.5873 L71.6379 162.2886 Z" fill="#ffffff" stroke="#172b4d" stroke-width="3" stroke-linecap="round" stroke-linejoin="round" />
  <path id="host-setup-ink-028" d="M259.2875 195 L259.2783 195.6754 L259.2078 196.3475 L259.0773 197.0101 L258.8898 197.6573 L258.6493 198.2844 L258.3604 198.8875 L258.0274 199.4639 L257.6543 200.0115 L257.2443 200.5283 L256.7998 201.012 L256.3228 201.4602 L255.8149 201.8696 L255.2781 202.2366 L254.7149 202.5576 L254.1286 202.8294 L253.5231 203.0494 L252.903 203.2164 L252.2729 203.3305 L251.6372 203.3929 L251 203.4061 L250.3643 203.3725 L249.7326 203.2949 L249.1066 203.1749 L248.4881 203.0135 L247.8791 202.8101 L247.2823 202.5633 L246.7017 202.2708 L246.1423 201.9307 L245.6103 201.5414 L245.1126 201.1027 L244.6561 200.6164 L244.2469 200.0859 L243.89 199.5164 L243.5883 198.9146 L243.343 198.2877 L243.153 197.6429 L243.016 196.9869 L242.9284 196.3252 L242.8866 195.6619 L242.8875 195 L242.9288 194.3415 L243.0097 193.6882 L243.1304 193.0416 L243.2925 192.4041 L243.4977 191.7788 L243.7478 191.1697 L244.0441 190.5815 L244.3864 190.0192 L244.7736 189.4876 L245.2033 188.9912 L245.6718 188.5333 L246.1752 188.1163 L246.7091 187.7417 L247.2695 187.4105 L247.8526 187.1234 L248.4552 186.8814 L249.0745 186.6861 L249.7073 186.5398 L250.3505 186.4453 L251 186.4061 L251.6511 186.4249 L252.2981 186.5042 L252.9351 186.6447 L253.556 186.8456 L254.1551 187.1042 L254.7278 187.4162 L255.2707 187.776 L255.782 188.1774 L256.2613 188.6145 L256.7092 189.0819 L257.1268 189.5758 L257.5148 190.0935 L257.8733 190.6339 L258.2008 191.1968 L258.4946 191.7821 L258.7503 192.3896 L258.9628 193.0184 L259.1265 193.6658 L259.2361 194.3281 Z" fill="#ffffff" stroke="#172b4d" stroke-width="3" stroke-linecap="round" stroke-linejoin="round" />
  <path id="host-setup-ink-029" d="M57 157 L53 147" fill="none" stroke="#172b4d" stroke-width="3.3" stroke-linecap="round" stroke-linejoin="round" />
  <path id="host-setup-ink-030" d="M63 153 L62 141" fill="none" stroke="#172b4d" stroke-width="3.3" stroke-linecap="round" stroke-linejoin="round" />
  <path id="host-setup-ink-031" d="M69 156 L72 146" fill="none" stroke="#172b4d" stroke-width="3.3" stroke-linecap="round" stroke-linejoin="round" />
  <path id="host-setup-ink-032" d="M43 154 L41.7639 152.1667 L40.7222 150.3333 L39.875 148.5 L39.2222 146.6667 L38.7639 144.8333 L38.5 143 L38.4306 141.1667 L38.5556 139.3333 L38.875 137.5 L39.3889 135.6667 L40.0972 133.8333 L41 132" fill="none" stroke="#0078d4" stroke-width="2.2" stroke-linecap="round" stroke-linejoin="round" />
  <path id="host-setup-ink-033" d="M80 143 L81.0903 144.6736 L82.0278 146.3611 L82.8125 148.0625 L83.4444 149.7778 L83.9236 151.5069 L84.25 153.25 L84.4236 155.0069 L84.4444 156.7778 L84.3125 158.5625 L84.0278 160.3611 L83.5903 162.1736 L83 164" fill="none" stroke="#0078d4" stroke-width="2.2" stroke-linecap="round" stroke-linejoin="round" />
  <path id="host-setup-ink-034" d="M136 168 L136 185 L164 185 L163 167 Z" fill="#ffffff" stroke="#172b4d" stroke-width="3" stroke-linecap="round" stroke-linejoin="round" />
  <path id="host-setup-ink-035" d="M139 178 L160 178" fill="none" stroke="#0078d4" stroke-width="2" stroke-linecap="round" stroke-linejoin="round" />
  <path id="host-setup-ink-036" d="M127 183 L124.9236 183.1042 L123.0278 183.4167 L121.3125 183.9375 L119.7778 184.6667 L118.4236 185.6042 L117.25 186.75 L116.2569 188.1042 L115.4444 189.6667 L114.8125 191.4375 L114.3611 193.4167 L114.0903 195.6042 L114 198 L110 231 L109.7708 232.6111 L109.75 234.1111 L109.9375 235.5 L110.3333 236.7778 L110.9375 237.9444 L111.75 239 L112.7708 239.9444 L114 240.7778 L115.4375 241.5 L117.0833 242.1111 L118.9375 242.6111 L121 243 L182 241 L184.0486 240.7639 L185.8611 240.3889 L187.4375 239.875 L188.7778 239.2222 L189.8819 238.4306 L190.75 237.5 L191.3819 236.4306 L191.7778 235.2222 L191.9375 233.875 L191.8611 232.3889 L191.5486 230.7639 L191 229 L187 197 L186.7639 194.7639 L186.3889 192.7222 L185.875 190.875 L185.2222 189.2222 L184.4306 187.7639 L183.5 186.5 L182.4306 185.4306 L181.2222 184.5556 L179.875 183.875 L178.3889 183.3889 L176.7639 183.0972 L175 183 Z" fill="#cfe4fa" stroke="#172b4d" stroke-width="3.7" stroke-linecap="round" stroke-linejoin="round" />
  <path id="host-setup-ink-037" d="M121 200 L118 229 L118.2083 229.9583 L118.5 230.8333 L118.875 231.625 L119.3333 232.3333 L119.875 232.9583 L120.5 233.5 L121.2083 233.9583 L122 234.3333 L122.875 234.625 L123.8333 234.8333 L124.875 234.9583 L126 235 L145 235" fill="none" stroke="#ffffff" stroke-width="3.3" stroke-linecap="round" stroke-linejoin="round" />
  <path id="host-setup-ink-038" d="M164.3409 209 L164.326 210.0488 L164.2125 211.0927 L164.0025 212.1216 L163.7007 213.1267 L163.3135 214.1004 L162.8484 215.0371 L162.3123 215.9322 L161.7118 216.7826 L161.0518 217.5851 L160.3363 218.3363 L159.5684 219.0323 L158.7508 219.668 L157.8867 220.238 L156.9801 220.7366 L156.0362 221.1586 L155.0616 221.5003 L154.0633 221.7596 L153.049 221.9367 L152.0258 222.0337 L151 222.0541 L149.9767 222.002 L148.9598 221.8814 L147.9521 221.6952 L146.9565 221.4445 L145.9761 221.1287 L145.0155 220.7453 L144.0807 220.2912 L143.1803 219.763 L142.3239 219.1584 L141.5228 218.4772 L140.7879 217.722 L140.1292 216.8981 L139.5546 216.0137 L139.069 215.0791 L138.6741 214.1056 L138.3683 213.1043 L138.1477 212.0856 L138.0067 211.0579 L137.9395 210.0279 L137.9409 209 L138.0074 207.9775 L138.1375 206.9628 L138.3319 205.9587 L138.5928 204.9687 L138.9231 203.9976 L139.3258 203.0517 L139.8026 202.1383 L140.3537 201.265 L140.9771 200.4396 L141.6687 199.6687 L142.423 198.9576 L143.2333 198.31 L144.0927 197.7283 L144.9947 197.214 L145.9334 196.7682 L146.9035 196.3924 L147.9004 196.089 L148.9191 195.8618 L149.9545 195.7151 L151 195.6541 L152.048 195.6834 L153.0897 195.8065 L154.1151 196.0246 L155.1146 196.3366 L156.079 196.7383 L157.0008 197.2228 L157.8747 197.7815 L158.6978 198.4049 L159.4694 199.0836 L160.1904 199.8096 L160.8626 200.5765 L161.4873 201.3805 L162.0643 202.2198 L162.5916 203.0938 L163.0645 204.0027 L163.4762 204.9462 L163.8182 205.9226 L164.0817 206.9281 L164.2581 207.9566 Z" fill="#ffffff" stroke="#0078d4" stroke-width="2.6" stroke-linecap="round" stroke-linejoin="round" />
  <path id="host-setup-ink-039" d="M151 201.8 L151.1888 202.7972 L151.4218 203.7222 L151.699 204.575 L152.0204 205.3556 L152.3861 206.0639 L152.796 206.7 L153.2501 207.2639 L153.7484 207.7556 L154.291 208.175 L154.8778 208.5222 L155.5088 208.7972 L156.184 209 L155.5088 209.2028 L154.8778 209.4778 L154.291 209.825 L153.7484 210.2444 L153.2501 210.7361 L152.796 211.3 L152.3861 211.9361 L152.0204 212.6444 L151.699 213.425 L151.4218 214.2778 L151.1888 215.2028 L151 216.2 L150.8112 215.2028 L150.5782 214.2778 L150.301 213.425 L149.9796 212.6444 L149.6139 211.9361 L149.204 211.3 L148.7499 210.7361 L148.2516 210.2444 L147.709 209.825 L147.1222 209.4778 L146.4912 209.2028 L145.816 209 L146.4912 208.7972 L147.1222 208.5222 L147.709 208.175 L148.2516 207.7556 L148.7499 207.2639 L149.204 206.7 L149.6139 206.0639 L149.9796 205.3556 L150.301 204.575 L150.5782 203.7222 L150.8112 202.7972 Z" fill="#0078d4" stroke="#0078d4" stroke-width="1.4" stroke-linecap="round" stroke-linejoin="round" />
  <path id="host-setup-ink-040" d="M147.7288 231 L147.7258 231.2145 L147.7026 231.428 L147.6596 231.6385 L147.5979 231.8441 L147.5187 232.0433 L147.4235 232.2349 L147.3139 232.418 L147.191 232.5919 L147.0561 232.756 L146.9097 232.9097 L146.7526 233.0521 L146.5854 233.1821 L146.4086 233.2987 L146.2232 233.4007 L146.0301 233.487 L145.8308 233.5569 L145.6266 233.6099 L145.4191 233.6462 L145.2098 233.666 L145 233.6702 L144.7907 233.6595 L144.5827 233.6348 L144.3766 233.5967 L144.1729 233.5455 L143.9724 233.4809 L143.7759 233.4025 L143.5847 233.3096 L143.4005 233.2015 L143.2254 233.0778 L143.0615 232.9385 L142.9112 232.784 L142.7764 232.6155 L142.6589 232.4346 L142.5596 232.2435 L142.4788 232.0443 L142.4162 231.8395 L142.3711 231.6311 L142.3423 231.4209 L142.3285 231.2102 L142.3288 231 L142.3424 230.7908 L142.369 230.5833 L142.4088 230.3779 L142.4622 230.1754 L142.5297 229.9768 L142.6121 229.7833 L142.7096 229.5965 L142.8224 229.4178 L142.9499 229.249 L143.0913 229.0913 L143.2456 228.9459 L143.4113 228.8134 L143.5871 228.6944 L143.7716 228.5892 L143.9637 228.498 L144.1621 228.4212 L144.366 228.3591 L144.5744 228.3126 L144.7861 228.2826 L145 228.2702 L145.2144 228.2762 L145.4274 228.3013 L145.6372 228.346 L145.8416 228.4098 L146.0389 228.4919 L146.2274 228.591 L146.4062 228.7053 L146.5745 228.8328 L146.7324 228.9717 L146.8799 229.1201 L147.0174 229.277 L147.1451 229.4415 L147.2632 229.6131 L147.371 229.7919 L147.4677 229.9778 L147.5519 230.1708 L147.6219 230.3705 L147.6758 230.5762 L147.7119 230.7866 Z" fill="#7351a2" stroke="none" stroke-width="0" stroke-linecap="round" stroke-linejoin="round" />
  <path id="host-setup-ink-041" d="M159.7288 231 L159.7258 231.2145 L159.7026 231.428 L159.6596 231.6385 L159.5979 231.8441 L159.5187 232.0433 L159.4235 232.2349 L159.3139 232.418 L159.191 232.5919 L159.0561 232.756 L158.9097 232.9097 L158.7526 233.0521 L158.5854 233.1821 L158.4086 233.2987 L158.2232 233.4007 L158.0301 233.487 L157.8308 233.5569 L157.6266 233.6099 L157.4191 233.6462 L157.2098 233.666 L157 233.6702 L156.7907 233.6595 L156.5827 233.6348 L156.3766 233.5967 L156.1729 233.5455 L155.9724 233.4809 L155.7759 233.4025 L155.5847 233.3096 L155.4005 233.2015 L155.2254 233.0778 L155.0615 232.9385 L154.9112 232.784 L154.7764 232.6155 L154.6589 232.4346 L154.5596 232.2435 L154.4788 232.0443 L154.4162 231.8395 L154.3711 231.6311 L154.3423 231.4209 L154.3285 231.2102 L154.3288 231 L154.3424 230.7908 L154.369 230.5833 L154.4088 230.3779 L154.4622 230.1754 L154.5297 229.9768 L154.6121 229.7833 L154.7096 229.5965 L154.8224 229.4178 L154.9499 229.249 L155.0913 229.0913 L155.2456 228.9459 L155.4113 228.8134 L155.5871 228.6944 L155.7716 228.5892 L155.9637 228.498 L156.1621 228.4212 L156.366 228.3591 L156.5744 228.3126 L156.7861 228.2826 L157 228.2702 L157.2144 228.2762 L157.4274 228.3013 L157.6372 228.346 L157.8416 228.4098 L158.0389 228.4919 L158.2274 228.591 L158.4062 228.7053 L158.5745 228.8328 L158.7324 228.9717 L158.8799 229.1201 L159.0174 229.277 L159.1451 229.4415 L159.2632 229.6131 L159.371 229.7919 L159.4677 229.9778 L159.5519 230.1708 L159.6219 230.3705 L159.6758 230.5762 L159.7119 230.7866 Z" fill="#e77724" stroke="none" stroke-width="0" stroke-linecap="round" stroke-linejoin="round" />
  <path id="host-setup-ink-042" d="M171.7288 231 L171.7258 231.2145 L171.7026 231.428 L171.6596 231.6385 L171.5979 231.8441 L171.5187 232.0433 L171.4235 232.2349 L171.3139 232.418 L171.191 232.5919 L171.0561 232.756 L170.9097 232.9097 L170.7526 233.0521 L170.5854 233.1821 L170.4086 233.2987 L170.2232 233.4007 L170.0301 233.487 L169.8308 233.5569 L169.6266 233.6099 L169.4191 233.6462 L169.2098 233.666 L169 233.6702 L168.7907 233.6595 L168.5827 233.6348 L168.3766 233.5967 L168.1729 233.5455 L167.9724 233.4809 L167.7759 233.4025 L167.5847 233.3096 L167.4005 233.2015 L167.2254 233.0778 L167.0615 232.9385 L166.9112 232.784 L166.7764 232.6155 L166.6589 232.4346 L166.5596 232.2435 L166.4788 232.0443 L166.4162 231.8395 L166.3711 231.6311 L166.3423 231.4209 L166.3285 231.2102 L166.3288 231 L166.3424 230.7908 L166.369 230.5833 L166.4088 230.3779 L166.4622 230.1754 L166.5297 229.9768 L166.6121 229.7833 L166.7096 229.5965 L166.8224 229.4178 L166.9499 229.249 L167.0913 229.0913 L167.2456 228.9459 L167.4113 228.8134 L167.5871 228.6944 L167.7716 228.5892 L167.9637 228.498 L168.1621 228.4212 L168.366 228.3591 L168.5744 228.3126 L168.7861 228.2826 L169 228.2702 L169.2144 228.2762 L169.4274 228.3013 L169.6372 228.346 L169.8416 228.4098 L170.0389 228.4919 L170.2274 228.591 L170.4062 228.7053 L170.5745 228.8328 L170.7324 228.9717 L170.8799 229.1201 L171.0174 229.277 L171.1451 229.4415 L171.2632 229.6131 L171.371 229.7919 L171.4677 229.9778 L171.5519 230.1708 L171.6219 230.3705 L171.6758 230.5762 L171.7119 230.7866 Z" fill="#23834b" stroke="none" stroke-width="0" stroke-linecap="round" stroke-linejoin="round" />
  <path id="host-setup-ink-043" d="M97 113 L89 113 L88.0486 113.3681 L87.1944 113.8056 L86.4375 114.3125 L85.7778 114.8889 L85.2153 115.5347 L84.75 116.25 L84.3819 117.0347 L84.1111 117.8889 L83.9375 118.8125 L83.8611 119.8056 L83.8819 120.8681 L84 122 L85 138 L85.2292 139.1042 L85.5833 140.0833 L86.0625 140.9375 L86.6667 141.6667 L87.3958 142.2708 L88.25 142.75 L89.2292 143.1042 L90.3333 143.3333 L91.5625 143.4375 L92.9167 143.4167 L94.3958 143.2708 L96 143 Z" fill="#cfe4fa" stroke="#172b4d" stroke-width="3.3" stroke-linecap="round" stroke-linejoin="round" />
  <path id="host-setup-ink-044" d="M200 111 L209 112 L209.9514 112.2153 L210.8056 112.5278 L211.5625 112.9375 L212.2222 113.4444 L212.7847 114.0486 L213.25 114.75 L213.6181 115.5486 L213.8889 116.4444 L214.0625 117.4375 L214.1389 118.5278 L214.1181 119.7153 L214 121 L213 135 L212.9306 136.1181 L212.7222 137.1389 L212.375 138.0625 L211.8889 138.8889 L211.2639 139.6181 L210.5 140.25 L209.5972 140.7847 L208.5556 141.2222 L207.375 141.5625 L206.0556 141.8056 L204.5972 141.9514 L203 142 Z" fill="#cfe4fa" stroke="#172b4d" stroke-width="3.3" stroke-linecap="round" stroke-linejoin="round" />
  <path id="host-setup-ink-045" d="M150 83 L151 63" fill="none" stroke="#172b4d" stroke-width="3.8" stroke-linecap="round" stroke-linejoin="round" />
  <path id="host-setup-ink-046" d="M158.7822 55 L158.7735 55.6118 L158.7073 56.2207 L158.5848 56.8209 L158.4087 57.4072 L158.1829 57.9753 L157.9116 58.5216 L157.5989 59.0438 L157.2485 59.5398 L156.8636 60.0079 L156.4462 60.4462 L155.9982 60.8522 L155.5213 61.223 L155.0172 61.5555 L154.4884 61.8463 L153.9378 62.0925 L153.3693 62.2918 L152.7869 62.4431 L152.1952 62.5464 L151.5984 62.603 L151 62.6149 L150.4031 62.5845 L149.8099 62.5142 L149.2221 62.4055 L148.6413 62.2593 L148.0694 62.0751 L147.509 61.8514 L146.9638 61.5865 L146.4385 61.2784 L145.939 60.9257 L145.4716 60.5284 L145.0429 60.0878 L144.6587 59.6072 L144.3235 59.0913 L144.0403 58.5462 L143.8099 57.9782 L143.6315 57.3942 L143.5028 56.7999 L143.4206 56.2005 L143.3814 55.5996 L143.3822 55 L143.421 54.4035 L143.4969 53.8116 L143.6103 53.2259 L143.7625 52.6484 L143.9552 52.0819 L144.1901 51.5302 L144.4682 50.9973 L144.7897 50.4879 L145.1533 50.0064 L145.5567 49.5567 L145.9967 49.1419 L146.4694 48.7642 L146.9707 48.4249 L147.4969 48.1248 L148.0445 47.8648 L148.6104 47.6455 L149.1919 47.4686 L149.7861 47.336 L150.3901 47.2505 L151 47.2149 L151.6114 47.232 L152.219 47.3038 L152.8171 47.431 L153.4002 47.613 L153.9627 47.8473 L154.5005 48.1299 L155.0102 48.4559 L155.4904 48.8195 L155.9405 49.2155 L156.3611 49.6389 L156.7532 50.0863 L157.1176 50.5553 L157.4542 51.0449 L157.7618 51.5547 L158.0376 52.0849 L158.2778 52.6353 L158.4773 53.2049 L158.631 53.7914 L158.7339 54.3913 Z" fill="#e77724" stroke="#172b4d" stroke-width="3" stroke-linecap="round" stroke-linejoin="round" />
  <path id="host-setup-ink-047" d="M149 51 L152 50" fill="none" stroke="#fff0d3" stroke-width="2" stroke-linecap="round" stroke-linejoin="round" />
  <path id="host-setup-ink-048" d="M96 103 L95.9861 99.6389 L96.2778 96.5556 L96.875 93.75 L97.7778 91.2222 L98.9861 88.9722 L100.5 87 L102.3194 85.3056 L104.4444 83.8889 L106.875 82.75 L109.6111 81.8889 L112.6528 81.3056 L116 81 L181 80 L184.5208 80.4653 L187.75 81.1944 L190.6875 82.1875 L193.3333 83.4444 L195.6875 84.9653 L197.75 86.75 L199.5208 88.7986 L201 91.1111 L202.1875 93.6875 L203.0833 96.5278 L203.6875 99.6319 L204 103 L203 151 L202.5347 154.5208 L201.8056 157.75 L200.8125 160.6875 L199.5556 163.3333 L198.0347 165.6875 L196.25 167.75 L194.2014 169.5208 L191.8889 171 L189.3125 172.1875 L186.4722 173.0833 L183.3681 173.6875 L180 174 L118 174 L114.3264 173.3889 L110.9722 172.5556 L107.9375 171.5 L105.2222 170.2222 L102.8264 168.7222 L100.75 167 L98.9931 165.0556 L97.5556 162.8889 L96.4375 160.5 L95.6389 157.8889 L95.1597 155.0556 L95 152 Z" fill="#ffffff" stroke="#172b4d" stroke-width="3.9" stroke-linecap="round" stroke-linejoin="round" />
  <path id="host-setup-ink-049" d="M105 105 L105.0972 102.7639 L105.3889 100.7222 L105.875 98.875 L106.5556 97.2222 L107.4306 95.7639 L108.5 94.5 L109.7639 93.4306 L111.2222 92.5556 L112.875 91.875 L114.7222 91.3889 L116.7639 91.0972 L119 91 L142 90" fill="none" stroke="#cfe4fa" stroke-width="3" stroke-linecap="round" stroke-linejoin="round" />
  <path id="host-setup-ink-050" d="M196 151 L195.6042 153.0833 L195.0833 155 L194.4375 156.75 L193.6667 158.3333 L192.7708 159.75 L191.75 161 L190.6042 162.0833 L189.3333 163 L187.9375 163.75 L186.4167 164.3333 L184.7708 164.75 L183 165" fill="none" stroke="#cfe4fa" stroke-width="3" stroke-linecap="round" stroke-linejoin="round" />
  <path id="host-setup-ink-051" d="M121 107 L122.1736 106.3819 L123.3611 105.8611 L124.5625 105.4375 L125.7778 105.1111 L127.0069 104.8819 L128.25 104.75 L129.5069 104.7153 L130.7778 104.7778 L132.0625 104.9375 L133.3611 105.1944 L134.6736 105.5486 L136 106" fill="none" stroke="#172b4d" stroke-width="2.2" stroke-linecap="round" stroke-linejoin="round" />
  <path id="host-setup-ink-052" d="M166 106 L167.1667 105.3889 L168.3333 104.8889 L169.5 104.5 L170.6667 104.2222 L171.8333 104.0556 L173 104 L174.1667 104.0556 L175.3333 104.2222 L176.5 104.5 L177.6667 104.8889 L178.8333 105.3889 L180 106" fill="none" stroke="#172b4d" stroke-width="2.2" stroke-linecap="round" stroke-linejoin="round" />
  <path id="host-setup-ink-053" d="M136.8486 121 L136.8334 121.7113 L136.7643 122.4189 L136.6421 123.117 L136.4688 123.8001 L136.2471 124.4636 L135.9799 125.1036 L135.6704 125.7165 L135.3216 126.2995 L134.9361 126.8499 L134.5163 127.365 L134.0642 127.8416 L133.582 128.2768 L133.0719 128.6671 L132.5368 129.0092 L131.9797 129.3003 L131.4043 129.5382 L130.8146 129.7212 L130.2147 129.8491 L129.6086 129.9223 L129 129.942 L128.3923 129.9097 L127.7883 129.8271 L127.1907 129.6956 L126.6019 129.516 L126.0246 129.2885 L125.4617 129.0127 L124.9168 128.6882 L124.3943 128.3145 L123.8987 127.8918 L123.4351 127.421 L123.0086 126.9044 L122.6236 126.3455 L122.2837 125.7489 L121.9917 125.1203 L121.7487 124.4657 L121.555 123.7912 L121.4096 123.1026 L121.3113 122.4051 L121.2581 121.703 L121.2486 121 L121.2815 120.2991 L121.3564 119.6031 L121.4732 118.915 L121.6323 118.2378 L121.8345 117.5753 L122.0802 116.9317 L122.3692 116.3115 L122.701 115.7194 L123.0738 115.1599 L123.4854 114.637 L123.9328 114.1543 L124.4125 113.7145 L124.921 113.3195 L125.4545 112.9711 L126.0098 112.6705 L126.5837 112.4191 L127.1729 112.2186 L127.7743 112.0707 L128.3846 111.9778 L129 111.942 L129.6162 111.9652 L130.2287 112.0487 L130.8325 112.193 L131.4226 112.397 L131.9944 112.6586 L132.5439 112.9746 L133.0678 113.3407 L133.5637 113.7522 L134.0301 114.2045 L134.466 114.6931 L134.8709 115.2143 L135.2442 115.7653 L135.5849 116.3439 L135.8914 116.9485 L136.1612 117.5774 L136.3914 118.2289 L136.5786 118.9006 L136.7192 119.5893 L136.81 120.2908 Z" fill="#0078d4" stroke="#172b4d" stroke-width="2.6" stroke-linecap="round" stroke-linejoin="round" />
  <path id="host-setup-ink-054" d="M129.0213 118 L129.0191 118.1589 L129.0019 118.3171 L128.9701 118.473 L128.9243 118.6253 L128.8657 118.7728 L128.7952 118.9147 L128.714 119.0503 L128.623 119.1792 L128.523 119.3008 L128.4146 119.4146 L128.2982 119.52 L128.1744 119.6164 L128.0434 119.7027 L127.9061 119.7783 L127.7631 119.8422 L127.6154 119.894 L127.4641 119.9333 L127.3105 119.9601 L127.1554 119.9748 L127 119.9779 L126.845 119.97 L126.6909 119.9517 L126.5382 119.9235 L126.3874 119.8855 L126.2388 119.8377 L126.0933 119.7796 L125.9516 119.7108 L125.8152 119.6308 L125.6854 119.5391 L125.5641 119.4359 L125.4527 119.3215 L125.3529 119.1967 L125.2659 119.0627 L125.1923 118.9211 L125.1324 118.7736 L125.0861 118.6219 L125.0527 118.4675 L125.0313 118.3118 L125.0211 118.1557 L125.0213 118 L125.0314 117.8451 L125.0511 117.6913 L125.0806 117.5392 L125.1201 117.3892 L125.1702 117.2421 L125.2312 117.0987 L125.3034 116.9603 L125.3869 116.828 L125.4814 116.703 L125.5862 116.5862 L125.7004 116.4784 L125.8232 116.3803 L125.9534 116.2922 L126.0901 116.2142 L126.2323 116.1467 L126.3793 116.0898 L126.5304 116.0438 L126.6847 116.0094 L126.8416 115.9871 L127 115.9779 L127.1588 115.9823 L127.3166 116.001 L127.472 116.034 L127.6234 116.0813 L127.7695 116.1422 L127.9092 116.2156 L128.0416 116.3002 L128.1663 116.3947 L128.2832 116.4975 L128.3925 116.6075 L128.4943 116.7237 L128.589 116.8455 L128.6764 116.9727 L128.7563 117.1051 L128.828 117.2428 L128.8903 117.3858 L128.9422 117.5337 L128.9821 117.6861 L129.0088 117.8419 Z" fill="#ffffff" stroke="none" stroke-width="0" stroke-linecap="round" stroke-linejoin="round" />
  <path id="host-setup-ink-055" d="M181.8486 121 L181.8334 121.7113 L181.7643 122.4189 L181.6421 123.117 L181.4688 123.8001 L181.2471 124.4636 L180.9799 125.1036 L180.6704 125.7165 L180.3216 126.2995 L179.9361 126.8499 L179.5163 127.365 L179.0642 127.8416 L178.582 128.2768 L178.0719 128.6671 L177.5368 129.0092 L176.9797 129.3003 L176.4043 129.5382 L175.8146 129.7212 L175.2147 129.8491 L174.6086 129.9223 L174 129.942 L173.3923 129.9097 L172.7883 129.8271 L172.1907 129.6956 L171.6019 129.516 L171.0246 129.2885 L170.4617 129.0127 L169.9168 128.6882 L169.3943 128.3145 L168.8987 127.8918 L168.4351 127.421 L168.0086 126.9044 L167.6236 126.3455 L167.2837 125.7489 L166.9917 125.1203 L166.7487 124.4657 L166.555 123.7912 L166.4096 123.1026 L166.3113 122.4051 L166.2581 121.703 L166.2486 121 L166.2815 120.2991 L166.3564 119.6031 L166.4732 118.915 L166.6323 118.2378 L166.8345 117.5753 L167.0802 116.9317 L167.3692 116.3115 L167.701 115.7194 L168.0738 115.1599 L168.4854 114.637 L168.9328 114.1543 L169.4125 113.7145 L169.921 113.3195 L170.4545 112.9711 L171.0098 112.6705 L171.5837 112.4191 L172.1729 112.2186 L172.7743 112.0707 L173.3846 111.9778 L174 111.942 L174.6162 111.9652 L175.2287 112.0487 L175.8325 112.193 L176.4226 112.397 L176.9944 112.6586 L177.5439 112.9746 L178.0678 113.3407 L178.5637 113.7522 L179.0301 114.2045 L179.466 114.6931 L179.8709 115.2143 L180.2442 115.7653 L180.5849 116.3439 L180.8914 116.9485 L181.1612 117.5774 L181.3914 118.2289 L181.5786 118.9006 L181.7192 119.5893 L181.81 120.2908 Z" fill="#0078d4" stroke="#172b4d" stroke-width="2.6" stroke-linecap="round" stroke-linejoin="round" />
  <path id="host-setup-ink-056" d="M174.0213 118 L174.0191 118.1589 L174.0019 118.3171 L173.9701 118.473 L173.9243 118.6253 L173.8657 118.7728 L173.7952 118.9147 L173.714 119.0503 L173.623 119.1792 L173.523 119.3008 L173.4146 119.4146 L173.2982 119.52 L173.1744 119.6164 L173.0434 119.7027 L172.9061 119.7783 L172.7631 119.8422 L172.6154 119.894 L172.4641 119.9333 L172.3105 119.9601 L172.1554 119.9748 L172 119.9779 L171.845 119.97 L171.6909 119.9517 L171.5382 119.9235 L171.3874 119.8855 L171.2388 119.8377 L171.0933 119.7796 L170.9516 119.7108 L170.8152 119.6308 L170.6854 119.5391 L170.5641 119.4359 L170.4527 119.3215 L170.3529 119.1967 L170.2659 119.0627 L170.1923 118.9211 L170.1324 118.7736 L170.0861 118.6219 L170.0527 118.4675 L170.0313 118.3118 L170.0211 118.1557 L170.0213 118 L170.0314 117.8451 L170.0511 117.6913 L170.0806 117.5392 L170.1201 117.3892 L170.1702 117.2421 L170.2312 117.0987 L170.3034 116.9603 L170.3869 116.828 L170.4814 116.703 L170.5862 116.5862 L170.7004 116.4784 L170.8232 116.3803 L170.9534 116.2922 L171.0901 116.2142 L171.2323 116.1467 L171.3793 116.0898 L171.5304 116.0438 L171.6847 116.0094 L171.8416 115.9871 L172 115.9779 L172.1588 115.9823 L172.3166 116.001 L172.472 116.034 L172.6234 116.0813 L172.7695 116.1422 L172.9092 116.2156 L173.0416 116.3002 L173.1663 116.3947 L173.2832 116.4975 L173.3925 116.6075 L173.4943 116.7237 L173.589 116.8455 L173.6764 116.9727 L173.7563 117.1051 L173.828 117.2428 L173.8903 117.3858 L173.9422 117.5337 L173.9821 117.6861 L174.0088 117.8419 Z" fill="#ffffff" stroke="none" stroke-width="0" stroke-linecap="round" stroke-linejoin="round" />
  <path id="host-setup-ink-057" d="M112 140 L121 141" fill="none" stroke="#cfe4fa" stroke-width="3.8" stroke-linecap="round" stroke-linejoin="round" />
  <path id="host-setup-ink-058" d="M182 140 L191 139" fill="none" stroke="#cfe4fa" stroke-width="3.8" stroke-linecap="round" stroke-linejoin="round" />
  <path id="host-setup-ink-059" d="M131 148 L134.3681 150.4375 L137.8056 152.4167 L141.3125 153.9375 L144.8889 155 L148.5347 155.6042 L152.25 155.75 L156.0347 155.4375 L159.8889 154.6667 L163.8125 153.4375 L167.8056 151.75 L171.8681 149.6042 L176 147" fill="none" stroke="#172b4d" stroke-width="3.4" stroke-linecap="round" stroke-linejoin="round" />
  <path id="host-setup-ink-060" d="M143 155 L144.1736 155.4583 L145.3611 155.8333 L146.5625 156.125 L147.7778 156.3333 L149.0069 156.4583 L150.25 156.5 L151.5069 156.4583 L152.7778 156.3333 L154.0625 156.125 L155.3611 155.8333 L156.6736 155.4583 L158 155" fill="none" stroke="#0078d4" stroke-width="1.8" stroke-linecap="round" stroke-linejoin="round" />
  <path id="host-setup-ink-062" d="M265 133 L260.9785 132.1902 L257.5312 130.9277 L254.6465 129.2756 L252.3125 127.2969 L250.5176 125.0544 L249.25 122.6113 L248.498 120.0305 L248.25 117.375 L248.4941 114.7078 L249.2188 112.0918 L250.4121 109.5901 L252.0625 107.2656 L254.1582 105.1814 L256.6875 103.4004 L259.6387 101.9856 L263 101 L262.3286 96.5251 L262.5039 92.4824 L263.4351 88.8821 L265.0312 85.7344 L267.2017 83.0496 L269.8555 80.8379 L272.9019 79.1096 L276.25 77.875 L279.8091 77.1443 L283.4883 76.9277 L287.1968 77.2356 L290.8438 78.0781 L294.3384 79.4656 L297.5898 81.4082 L300.5073 83.9163 L303 87 L305.5625 81.6511 L308.6875 77.209 L312.2812 73.6428 L316.25 70.9219 L320.5 69.0154 L324.9375 67.8926 L329.4688 67.5227 L334 67.875 L338.4375 68.9187 L342.6875 70.623 L346.6562 72.9573 L350.25 75.8906 L353.375 79.3923 L355.9375 83.4316 L357.8438 87.9778 L359 93 L363.8196 91.5361 L368.4941 90.8516 L372.9724 90.8818 L377.2031 91.5625 L381.135 92.8291 L384.7168 94.6172 L387.8972 96.8623 L390.625 99.5 L392.8489 102.4658 L394.5176 105.6953 L395.5798 109.124 L395.9844 112.6875 L395.6799 116.3213 L394.6152 119.9609 L392.739 123.542 L390 127 L389.4375 128.1181 L388.75 129.1389 L387.9375 130.0625 L387 130.8889 L385.9375 131.6181 L384.75 132.25 L383.4375 132.7847 L382 133.2222 L380.4375 133.5625 L378.75 133.8056 L376.9375 133.9514 L375 134" fill="none" stroke="#0078d4" stroke-width="3.1" stroke-linecap="round" stroke-linejoin="round" />
  <path id="host-setup-ink-063" d="M289 96 L289.8611 95.5347 L290.7778 95.1389 L291.75 94.8125 L292.7778 94.5556 L293.8611 94.3681 L295 94.25 L296.1944 94.2014 L297.4444 94.2222 L298.75 94.3125 L300.1111 94.4722 L301.5278 94.7014 L303 95" fill="none" stroke="#cfe4fa" stroke-width="2.5" stroke-linecap="round" stroke-linejoin="round" />
  <path id="host-setup-ink-065" d="M294 224 L293 245 L357 245 L357 224" fill="none" stroke="#0078d4" stroke-width="2.8" stroke-linecap="round" stroke-linejoin="round" />
  <path id="host-setup-ink-066" d="M322 245 L322 254" fill="none" stroke="#0078d4" stroke-width="2.8" stroke-linecap="round" stroke-linejoin="round" />
  <path id="host-setup-ink-067" d="M270 149 L313 148 L313.7986 148.0486 L314.5278 148.1944 L315.1875 148.4375 L315.7778 148.7778 L316.2986 149.2153 L316.75 149.75 L317.1319 150.3819 L317.4444 151.1111 L317.6875 151.9375 L317.8611 152.8611 L317.9653 153.8819 L318 155 L317 225 L266 225 L265 156 L265.0347 154.8819 L265.1389 153.8611 L265.3125 152.9375 L265.5556 152.1111 L265.8681 151.3819 L266.25 150.75 L266.7014 150.2153 L267.2222 149.7778 L267.8125 149.4375 L268.4722 149.1944 L269.2014 149.0486 Z" fill="#ffffff" stroke="#172b4d" stroke-width="2.8" stroke-linecap="round" stroke-linejoin="round" />
  <path id="host-setup-ink-068" d="M266 198 L317 197 L317 224 L266 225 Z" fill="#cfe4fa" stroke="#0078d4" stroke-width="1.8" stroke-linecap="round" stroke-linejoin="round" />
  <path id="host-setup-ink-069" d="M285.5374 170 L285.5334 170.2781 L285.5033 170.5549 L285.4476 170.8277 L285.3676 171.0942 L285.265 171.3524 L285.1416 171.6007 L284.9995 171.8381 L284.8402 172.0636 L284.6653 172.2763 L284.4755 172.4755 L284.2719 172.6601 L284.0551 172.8286 L283.826 172.9798 L283.5856 173.112 L283.3354 173.2239 L283.0769 173.3145 L282.8122 173.3832 L282.5433 173.4302 L282.272 173.4559 L282 173.4613 L281.7287 173.4475 L281.459 173.4155 L281.1919 173.3662 L280.9279 173.2997 L280.6679 173.2159 L280.4132 173.1143 L280.1653 172.9939 L279.9266 172.8538 L279.6995 172.6935 L279.4871 172.5129 L279.2922 172.3126 L279.1176 172.0942 L278.9652 171.8597 L278.8365 171.6119 L278.7318 171.3537 L278.6507 171.0883 L278.5922 170.8181 L278.5548 170.5457 L278.537 170.2725 L278.5374 170 L278.555 169.7289 L278.5895 169.4598 L278.641 169.1936 L278.7102 168.9311 L278.7978 168.6736 L278.9046 168.4228 L279.031 168.1806 L279.1771 167.9491 L279.3424 167.7302 L279.5258 167.5258 L279.7258 167.3372 L279.9406 167.1655 L280.1685 167.0113 L280.4077 166.8749 L280.6566 166.7567 L280.9138 166.6571 L281.1781 166.5766 L281.4482 166.5164 L281.7228 166.4775 L282 166.4613 L282.2779 166.4691 L282.5541 166.5017 L282.826 166.5596 L283.091 166.6423 L283.3467 166.7488 L283.5911 166.8772 L283.8228 167.0254 L284.0411 167.1907 L284.2457 167.3707 L284.4369 167.5631 L284.6151 167.7665 L284.7807 167.9797 L284.9337 168.2022 L285.0735 168.434 L285.1989 168.675 L285.3081 168.9251 L285.3988 169.184 L285.4686 169.4506 L285.5154 169.7233 Z" fill="#0078d4" stroke="none" stroke-width="0" stroke-linecap="round" stroke-linejoin="round" />
  <path id="host-setup-ink-070" d="M303.5374 170 L303.5334 170.2781 L303.5033 170.5549 L303.4476 170.8277 L303.3676 171.0942 L303.265 171.3524 L303.1416 171.6007 L302.9995 171.8381 L302.8402 172.0636 L302.6653 172.2763 L302.4755 172.4755 L302.2719 172.6601 L302.0551 172.8286 L301.826 172.9798 L301.5856 173.112 L301.3354 173.2239 L301.0769 173.3145 L300.8122 173.3832 L300.5433 173.4302 L300.272 173.4559 L300 173.4613 L299.7287 173.4475 L299.459 173.4155 L299.1919 173.3662 L298.9279 173.2997 L298.6679 173.2159 L298.4132 173.1143 L298.1653 172.9939 L297.9266 172.8538 L297.6995 172.6935 L297.4871 172.5129 L297.2922 172.3126 L297.1176 172.0942 L296.9652 171.8597 L296.8365 171.6119 L296.7318 171.3537 L296.6507 171.0883 L296.5922 170.8181 L296.5548 170.5457 L296.537 170.2725 L296.5374 170 L296.555 169.7289 L296.5895 169.4598 L296.641 169.1936 L296.7102 168.9311 L296.7978 168.6736 L296.9046 168.4228 L297.031 168.1806 L297.1771 167.9491 L297.3424 167.7302 L297.5258 167.5258 L297.7258 167.3372 L297.9406 167.1655 L298.1685 167.0113 L298.4077 166.8749 L298.6566 166.7567 L298.9138 166.6571 L299.1781 166.5766 L299.4482 166.5164 L299.7228 166.4775 L300 166.4613 L300.2779 166.4691 L300.5541 166.5017 L300.826 166.5596 L301.091 166.6423 L301.3467 166.7488 L301.5911 166.8772 L301.8228 167.0254 L302.0411 167.1907 L302.2457 167.3707 L302.4369 167.5631 L302.6151 167.7665 L302.7807 167.9797 L302.9337 168.2022 L303.0735 168.434 L303.1989 168.675 L303.3081 168.9251 L303.3988 169.184 L303.4686 169.4506 L303.5154 169.7233 Z" fill="#0078d4" stroke="none" stroke-width="0" stroke-linecap="round" stroke-linejoin="round" />
  <path id="host-setup-ink-071" d="M283 183 L284.3403 184.0625 L285.6944 184.9167 L287.0625 185.5625 L288.4444 186 L289.8403 186.2292 L291.25 186.25 L292.6736 186.0625 L294.1111 185.6667 L295.5625 185.0625 L297.0278 184.25 L298.5069 183.2292 L300 182" fill="none" stroke="#172b4d" stroke-width="2.1" stroke-linecap="round" stroke-linejoin="round" />
  <g id="host-setup-text-072" fill="#000000" aria-label="1">
    <g transform="translate(286 216) scale(0.00878906 -0.00878906)">
      <use href="#glyph-bold-0031" transform="translate(0 0)" />
    </g>
  </g>
  <path id="host-setup-ink-073" d="M341 149 L384 148 L384.7986 148.0486 L385.5278 148.1944 L386.1875 148.4375 L386.7778 148.7778 L387.2986 149.2153 L387.75 149.75 L388.1319 150.3819 L388.4444 151.1111 L388.6875 151.9375 L388.8611 152.8611 L388.9653 153.8819 L389 155 L388 225 L337 225 L336 156 L336.0347 154.8819 L336.1389 153.8611 L336.3125 152.9375 L336.5556 152.1111 L336.8681 151.3819 L337.25 150.75 L337.7014 150.2153 L338.2222 149.7778 L338.8125 149.4375 L339.4722 149.1944 L340.2014 149.0486 Z" fill="#ffffff" stroke="#172b4d" stroke-width="2.8" stroke-linecap="round" stroke-linejoin="round" />
  <path id="host-setup-ink-074" d="M337 198 L388 197 L388 224 L337 225 Z" fill="#eae1f4" stroke="#7351a2" stroke-width="1.8" stroke-linecap="round" stroke-linejoin="round" />
  <path id="host-setup-ink-075" d="M356.5374 170 L356.5334 170.2781 L356.5033 170.5549 L356.4476 170.8277 L356.3676 171.0942 L356.265 171.3524 L356.1416 171.6007 L355.9995 171.8381 L355.8402 172.0636 L355.6653 172.2763 L355.4755 172.4755 L355.2719 172.6601 L355.0551 172.8286 L354.826 172.9798 L354.5856 173.112 L354.3354 173.2239 L354.0769 173.3145 L353.8122 173.3832 L353.5433 173.4302 L353.272 173.4559 L353 173.4613 L352.7287 173.4475 L352.459 173.4155 L352.1919 173.3662 L351.9279 173.2997 L351.6679 173.2159 L351.4132 173.1143 L351.1653 172.9939 L350.9266 172.8538 L350.6995 172.6935 L350.4871 172.5129 L350.2922 172.3126 L350.1176 172.0942 L349.9652 171.8597 L349.8365 171.6119 L349.7318 171.3537 L349.6507 171.0883 L349.5922 170.8181 L349.5548 170.5457 L349.537 170.2725 L349.5374 170 L349.555 169.7289 L349.5895 169.4598 L349.641 169.1936 L349.7102 168.9311 L349.7978 168.6736 L349.9046 168.4228 L350.031 168.1806 L350.1771 167.9491 L350.3424 167.7302 L350.5258 167.5258 L350.7258 167.3372 L350.9406 167.1655 L351.1685 167.0113 L351.4077 166.8749 L351.6566 166.7567 L351.9138 166.6571 L352.1781 166.5766 L352.4482 166.5164 L352.7228 166.4775 L353 166.4613 L353.2779 166.4691 L353.5541 166.5017 L353.826 166.5596 L354.091 166.6423 L354.3467 166.7488 L354.5911 166.8772 L354.8228 167.0254 L355.0411 167.1907 L355.2457 167.3707 L355.4369 167.5631 L355.6151 167.7665 L355.7807 167.9797 L355.9337 168.2022 L356.0735 168.434 L356.1989 168.675 L356.3081 168.9251 L356.3988 169.184 L356.4686 169.4506 L356.5154 169.7233 Z" fill="#0078d4" stroke="none" stroke-width="0" stroke-linecap="round" stroke-linejoin="round" />
  <path id="host-setup-ink-076" d="M374.5374 170 L374.5334 170.2781 L374.5033 170.5549 L374.4476 170.8277 L374.3676 171.0942 L374.265 171.3524 L374.1416 171.6007 L373.9995 171.8381 L373.8402 172.0636 L373.6653 172.2763 L373.4755 172.4755 L373.2719 172.6601 L373.0551 172.8286 L372.826 172.9798 L372.5856 173.112 L372.3354 173.2239 L372.0769 173.3145 L371.8122 173.3832 L371.5433 173.4302 L371.272 173.4559 L371 173.4613 L370.7287 173.4475 L370.459 173.4155 L370.1919 173.3662 L369.9279 173.2997 L369.6679 173.2159 L369.4132 173.1143 L369.1653 172.9939 L368.9266 172.8538 L368.6995 172.6935 L368.4871 172.5129 L368.2922 172.3126 L368.1176 172.0942 L367.9652 171.8597 L367.8365 171.6119 L367.7318 171.3537 L367.6507 171.0883 L367.5922 170.8181 L367.5548 170.5457 L367.537 170.2725 L367.5374 170 L367.555 169.7289 L367.5895 169.4598 L367.641 169.1936 L367.7102 168.9311 L367.7978 168.6736 L367.9046 168.4228 L368.031 168.1806 L368.1771 167.9491 L368.3424 167.7302 L368.5258 167.5258 L368.7258 167.3372 L368.9406 167.1655 L369.1685 167.0113 L369.4077 166.8749 L369.6566 166.7567 L369.9138 166.6571 L370.1781 166.5766 L370.4482 166.5164 L370.7228 166.4775 L371 166.4613 L371.2779 166.4691 L371.5541 166.5017 L371.826 166.5596 L372.091 166.6423 L372.3467 166.7488 L372.5911 166.8772 L372.8228 167.0254 L373.0411 167.1907 L373.2457 167.3707 L373.4369 167.5631 L373.6151 167.7665 L373.7807 167.9797 L373.9337 168.2022 L374.0735 168.434 L374.1989 168.675 L374.3081 168.9251 L374.3988 169.184 L374.4686 169.4506 L374.5154 169.7233 Z" fill="#0078d4" stroke="none" stroke-width="0" stroke-linecap="round" stroke-linejoin="round" />
  <path id="host-setup-ink-077" d="M354 183 L355.3403 184.0625 L356.6944 184.9167 L358.0625 185.5625 L359.4444 186 L360.8403 186.2292 L362.25 186.25 L363.6736 186.0625 L365.1111 185.6667 L366.5625 185.0625 L368.0278 184.25 L369.5069 183.2292 L371 182" fill="none" stroke="#172b4d" stroke-width="2.1" stroke-linecap="round" stroke-linejoin="round" />
  <g id="host-setup-text-078" fill="#000000" aria-label="2">
    <g transform="translate(357 216) scale(0.00878906 -0.00878906)">
      <use href="#glyph-bold-0032" transform="translate(0 0)" />
    </g>
  </g>
  <path id="host-setup-ink-079" d="M325.7395 245 L325.7353 245.294 L325.7035 245.5866 L325.6446 245.875 L325.56 246.1567 L325.4515 246.4297 L325.3211 246.6922 L325.1709 246.9431 L325.0025 247.1815 L324.8176 247.4064 L324.617 247.617 L324.4017 247.8121 L324.1726 247.9903 L323.9304 248.1501 L323.6762 248.2898 L323.4117 248.4081 L323.1385 248.5039 L322.8587 248.5766 L322.5743 248.6262 L322.2875 248.6534 L322 248.6591 L321.7132 248.6445 L321.4281 248.6107 L321.1457 248.5585 L320.8666 248.4882 L320.5918 248.3997 L320.3225 248.2923 L320.0605 248.165 L319.8081 248.0169 L319.5681 247.8474 L319.3435 247.6565 L319.1375 247.4448 L318.9529 247.2139 L318.7918 246.966 L318.6557 246.704 L318.545 246.4311 L318.4593 246.1504 L318.3975 245.8649 L318.3579 245.5768 L318.3391 245.2881 L318.3395 245 L318.3581 244.7134 L318.3946 244.429 L318.4491 244.1475 L318.5222 243.87 L318.6148 243.5978 L318.7277 243.3327 L318.8613 243.0766 L319.0158 242.8319 L319.1905 242.6005 L319.3844 242.3844 L319.5958 242.1851 L319.823 242.0036 L320.0639 241.8405 L320.3167 241.6963 L320.5798 241.5714 L320.8517 241.466 L321.1312 241.381 L321.4167 241.3173 L321.7069 241.2762 L322 241.2591 L322.2938 241.2673 L322.5857 241.3018 L322.8732 241.363 L323.1533 241.4504 L323.4237 241.563 L323.682 241.6988 L323.927 241.8554 L324.1577 242.0302 L324.374 242.2204 L324.5761 242.4239 L324.7645 242.6389 L324.9396 242.8642 L325.1014 243.0995 L325.2492 243.3445 L325.3817 243.5992 L325.4971 243.8637 L325.593 244.1374 L325.6668 244.4192 L325.7163 244.7075 Z" fill="#e77724" stroke="#ffffff" stroke-width="1" stroke-linecap="round" stroke-linejoin="round" />
  <path id="host-setup-ink-080" d="M254 59 L254.1878 59.9653 L254.4178 60.8611 L254.69 61.6875 L255.0044 62.4444 L255.3611 63.1319 L255.76 63.75 L256.2011 64.2986 L256.6844 64.7778 L257.21 65.1875 L257.7778 65.5278 L258.3878 65.7986 L259.04 66 L258.3878 66.2014 L257.7778 66.4722 L257.21 66.8125 L256.6844 67.2222 L256.2011 67.7014 L255.76 68.25 L255.3611 68.8681 L255.0044 69.5556 L254.69 70.3125 L254.4178 71.1389 L254.1878 72.0347 L254 73 L253.8122 72.0347 L253.5822 71.1389 L253.31 70.3125 L252.9956 69.5556 L252.6389 68.8681 L252.24 68.25 L251.7989 67.7014 L251.3156 67.2222 L250.79 66.8125 L250.2222 66.4722 L249.6122 66.2014 L248.96 66 L249.6122 65.7986 L250.2222 65.5278 L250.79 65.1875 L251.3156 64.7778 L251.7989 64.2986 L252.24 63.75 L252.6389 63.1319 L252.9956 62.4444 L253.31 61.6875 L253.5822 60.8611 L253.8122 59.9653 Z" fill="#e77724" stroke="#e77724" stroke-width="1.4" stroke-linecap="round" stroke-linejoin="round" />
  <g id="host-setup-text-082" fill="#000000" aria-label="Meet your help desk agent.&#10;Give it a place to run.">
    <g transform="translate(450 103) scale(0.01660156 -0.01660156)">
      <use href="#glyph-bold-004d" transform="translate(0 0)" />
      <use href="#glyph-bold-0065" transform="translate(1807.05882353 0)" />
      <use href="#glyph-bold-0065" transform="translate(2951.52941176 0)" />
      <use href="#glyph-bold-0074" transform="translate(4096 0)" />
      <use href="#glyph-bold-0079" transform="translate(5948.23529412 0)" />
      <use href="#glyph-bold-006f" transform="translate(7077.64705882 0)" />
      <use href="#glyph-bold-0075" transform="translate(8161.88235294 0)" />
      <use href="#glyph-bold-0072" transform="translate(9231.05882353 0)" />
      <use href="#glyph-bold-0068" transform="translate(11098.35294118 0)" />
      <use href="#glyph-bold-0065" transform="translate(12288 0)" />
      <use href="#glyph-bold-006c" transform="translate(13432.47058824 0)" />
      <use href="#glyph-bold-0070" transform="translate(13989.64705882 0)" />
      <use href="#glyph-bold-0064" transform="translate(15977.41176471 0)" />
      <use href="#glyph-bold-0065" transform="translate(17182.11764706 0)" />
      <use href="#glyph-bold-0073" transform="translate(18326.58823529 0)" />
      <use href="#glyph-bold-006b" transform="translate(19320.47058824 0)" />
      <use href="#glyph-bold-0061" transform="translate(21308.23529412 0)" />
      <use href="#glyph-bold-0067" transform="translate(22452.70588235 0)" />
      <use href="#glyph-bold-0065" transform="translate(23536.94117647 0)" />
      <use href="#glyph-bold-006e" transform="translate(24681.41176471 0)" />
      <use href="#glyph-bold-0074" transform="translate(25750.58823529 0)" />
      <use href="#glyph-bold-002e" transform="translate(26714.35294118 0)" />
    </g>
    <g transform="translate(450 149) scale(0.01660156 -0.01660156)">
      <use href="#glyph-bold-0047" transform="translate(0 0)" />
      <use href="#glyph-bold-0069" transform="translate(1385.41176471 0)" />
      <use href="#glyph-bold-0076" transform="translate(1957.64705882 0)" />
      <use href="#glyph-bold-0065" transform="translate(2951.52941176 0)" />
      <use href="#glyph-bold-0069" transform="translate(4984.47058824 0)" />
      <use href="#glyph-bold-0074" transform="translate(5556.70588235 0)" />
      <use href="#glyph-bold-0061" transform="translate(7408.94117647 0)" />
      <use href="#glyph-bold-0070" transform="translate(9441.88235294 0)" />
      <use href="#glyph-bold-006c" transform="translate(10541.17647059 0)" />
      <use href="#glyph-bold-0061" transform="translate(11098.35294118 0)" />
      <use href="#glyph-bold-0063" transform="translate(12242.82352941 0)" />
      <use href="#glyph-bold-0065" transform="translate(13296.94117647 0)" />
      <use href="#glyph-bold-0074" transform="translate(15329.88235294 0)" />
      <use href="#glyph-bold-006f" transform="translate(16293.64705882 0)" />
      <use href="#glyph-bold-0072" transform="translate(18266.35294118 0)" />
      <use href="#glyph-bold-0075" transform="translate(19245.17647059 0)" />
      <use href="#glyph-bold-006e" transform="translate(20314.35294118 0)" />
      <use href="#glyph-bold-002e" transform="translate(21383.52941176 0)" />
    </g>
  </g>
  <g id="host-setup-text-084" fill="#000000" aria-label="Prepare the two Foundry versions used throughout the workshop.">
    <g transform="translate(450 205) scale(0.01025391 -0.01025391)">
      <use href="#glyph-regular-0050" transform="translate(0 0)" />
      <use href="#glyph-regular-0072" transform="translate(1072.76190476 0)" />
      <use href="#glyph-regular-0065" transform="translate(2048 0)" />
      <use href="#glyph-regular-0070" transform="translate(3169.52380952 0)" />
      <use href="#glyph-regular-0061" transform="translate(4266.66666667 0)" />
      <use href="#glyph-regular-0072" transform="translate(5315.04761905 0)" />
      <use href="#glyph-regular-0065" transform="translate(6290.28571429 0)" />
      <use href="#glyph-regular-0074" transform="translate(8021.33333333 0)" />
      <use href="#glyph-regular-0068" transform="translate(8996.57142857 0)" />
      <use href="#glyph-regular-0065" transform="translate(10191.23809524 0)" />
      <use href="#glyph-regular-0074" transform="translate(11922.28571429 0)" />
      <use href="#glyph-regular-0077" transform="translate(12897.52380952 0)" />
      <use href="#glyph-regular-006f" transform="translate(14287.23809524 0)" />
      <use href="#glyph-regular-0046" transform="translate(15969.52380952 0)" />
      <use href="#glyph-regular-006f" transform="translate(17212.95238095 0)" />
      <use href="#glyph-regular-0075" transform="translate(18285.71428571 0)" />
      <use href="#glyph-regular-006e" transform="translate(19358.47619048 0)" />
      <use href="#glyph-regular-0064" transform="translate(20431.23809524 0)" />
      <use href="#glyph-regular-0072" transform="translate(21625.9047619 0)" />
      <use href="#glyph-regular-0079" transform="translate(22601.14285714 0)" />
      <use href="#glyph-regular-0076" transform="translate(24283.42857143 0)" />
      <use href="#glyph-regular-0065" transform="translate(25283.04761905 0)" />
      <use href="#glyph-regular-0072" transform="translate(26404.57142857 0)" />
      <use href="#glyph-regular-0073" transform="translate(27379.80952381 0)" />
      <use href="#glyph-regular-0069" transform="translate(28379.42857143 0)" />
      <use href="#glyph-regular-006f" transform="translate(28964.57142857 0)" />
      <use href="#glyph-regular-006e" transform="translate(30037.33333333 0)" />
      <use href="#glyph-regular-0073" transform="translate(31110.0952381 0)" />
      <use href="#glyph-regular-0075" transform="translate(32719.23809524 0)" />
      <use href="#glyph-regular-0073" transform="translate(33792 0)" />
      <use href="#glyph-regular-0065" transform="translate(34791.61904762 0)" />
      <use href="#glyph-regular-0064" transform="translate(35913.14285714 0)" />
      <use href="#glyph-regular-0074" transform="translate(37717.33333333 0)" />
      <use href="#glyph-regular-0068" transform="translate(38692.57142857 0)" />
      <use href="#glyph-regular-0072" transform="translate(39887.23809524 0)" />
      <use href="#glyph-regular-006f" transform="translate(40862.47619048 0)" />
      <use href="#glyph-regular-0075" transform="translate(41935.23809524 0)" />
      <use href="#glyph-regular-0067" transform="translate(43008 0)" />
      <use href="#glyph-regular-0068" transform="translate(44105.14285714 0)" />
      <use href="#glyph-regular-006f" transform="translate(45299.80952381 0)" />
      <use href="#glyph-regular-0075" transform="translate(46372.57142857 0)" />
      <use href="#glyph-regular-0074" transform="translate(47445.33333333 0)" />
      <use href="#glyph-regular-0074" transform="translate(49030.0952381 0)" />
      <use href="#glyph-regular-0068" transform="translate(50005.33333333 0)" />
      <use href="#glyph-regular-0065" transform="translate(51200 0)" />
      <use href="#glyph-regular-0077" transform="translate(52931.04761905 0)" />
      <use href="#glyph-regular-006f" transform="translate(54320.76190476 0)" />
      <use href="#glyph-regular-0072" transform="translate(55393.52380952 0)" />
      <use href="#glyph-regular-006b" transform="translate(56368.76190476 0)" />
      <use href="#glyph-regular-0073" transform="translate(57465.9047619 0)" />
      <use href="#glyph-regular-0068" transform="translate(58465.52380952 0)" />
      <use href="#glyph-regular-006f" transform="translate(59660.19047619 0)" />
      <use href="#glyph-regular-0070" transform="translate(60732.95238095 0)" />
      <use href="#glyph-regular-002e" transform="translate(61830.0952381 0)" />
    </g>
  </g>
</svg>
